<?xml version="1.0" encoding="iso-8859-1"?>
<!-- Generator: Adobe Illustrator 19.0.0, SVG Export Plug-In . SVG Version: 6.00 Build 0)  -->
<svg version="1.1" id="Capa_1" xmlns="http://www.w3.org/2000/svg" xmlns:xlink="http://www.w3.org/1999/xlink" x="0px" y="0px"
	 viewBox="0 0 512 512" style="enable-background:new 0 0 512 512;" xml:space="preserve">
<g>
	<g>
		<rect x="301" width="90.5" height="85"/>
	</g>
</g>
<g>
	<g>
		<rect x="241" width="30" height="140"/>
	</g>
</g>
<g>
	<g>
		<polygon points="90.25,245 60.25,245 60.25,275 30,275 30,245 0,245 0,512 90.5,512 		"/>
	</g>
</g>
<g>
	<g>
		<polygon points="482,245 482,275 451.75,275 451.75,245 421.75,245 421.75,275 421.5,275 421.499,512 512,512 512,245 		"/>
	</g>
</g>
<g>
	<g>
		<path d="M255.75,305c-19.973,0-36.987,12.871-43.211,30.75h86.423C292.737,317.871,275.723,305,255.75,305z"/>
	</g>
</g>
<g>
	<g>
		<rect x="210" y="365.75" width="91.5" height="146.25"/>
	</g>
</g>
<g>
	<g>
		<path d="M361.5,140v30h-30.25v-30h-30v30h-90.5v-30h-30v30H150.5v-30h-30v372H180V350.75c0-41.769,33.981-75.75,75.75-75.75
			s75.75,33.981,75.75,75.75V512h59.999l0.001-372H361.5z"/>
	</g>
</g>
<g>
</g>
<g>
</g>
<g>
</g>
<g>
</g>
<g>
</g>
<g>
</g>
<g>
</g>
<g>
</g>
<g>
</g>
<g>
</g>
<g>
</g>
<g>
</g>
<g>
</g>
<g>
</g>
<g>
</g>
</svg>
