<svg id="Capa_1" enable-background="new 0 0 512 512" height="512" viewBox="0 0 512 512" width="512" xmlns="http://www.w3.org/2000/svg"><path d="m328.805 168.976c-7.723-3.195-11.395-12.047-8.199-19.771 3.195-7.724 12.046-11.396 19.771-8.2l49.502 20.478-21.017-82.661c-1.181-4.643-4.49-8.453-8.922-10.272l-98.194-40.295c-3.682-1.511-7.81-1.511-11.492 0l-98.194 40.295c-4.432 1.819-7.742 5.629-8.922 10.272l-44.976 171.971c-1.849 6.716-7.941 11.124-14.584 11.124-1.329 0-2.68-.176-4.024-.546-8.059-2.217-12.795-10.549-10.578-18.608l7.94-28.855-27.01 12.07-49.589 240.712c-1.934 9.389 5.237 18.189 14.824 18.189h113.799l21.629-153.915c.57-4.049 2.753-7.696 6.053-10.11l90.444-66.152c5.321-3.892 12.549-3.892 17.87 0l90.444 66.152c3.3 2.414 5.483 6.06 6.053 10.11l21.629 153.915h113.798c9.586 0 16.758-8.799 14.824-18.189l-49.59-240.712z"/><path d="m256 285.669-76.346 55.841-20.148 143.368h192.988l-20.148-143.368z"/></svg>