<svg id="Layer_1" enable-background="new 0 0 512 512" viewBox="0 0 512 512" xmlns="http://www.w3.org/2000/svg"><g><g><g><path d="m309.335 256h-234.667c-3.349 0-6.528 1.579-8.533 4.267l-64 85.333c-.171.213-.128.512-.277.725-.747 1.173-1.259 2.453-1.493 3.883-.064.405-.213.768-.235 1.195-.021.213-.128.384-.128.597v149.333c-.001 5.888 4.778 10.667 10.666 10.667h298.667c5.888 0 10.667-4.779 10.667-10.667v-234.666c-.001-5.888-4.779-10.667-10.667-10.667zm-181.334 202.667c0 5.888-4.779 10.667-10.667 10.667h-64c-5.888 0-10.667-4.779-10.667-10.667v-32c0-23.531 19.136-42.667 42.667-42.667s42.667 19.136 42.667 42.667zm149.334 0c0 5.888-4.779 10.667-10.667 10.667h-64c-5.888 0-10.667-4.779-10.667-10.667v-32c0-23.531 19.136-42.667 42.667-42.667s42.667 19.136 42.667 42.667z"/><path d="m510.593 218.709-83.925-146.88v-29.162h10.667c5.888 0 10.667-4.779 10.667-10.667s-4.779-10.667-10.667-10.667h-10.667v-10.666c0-5.888-4.779-10.667-10.667-10.667s-10.667 4.779-10.667 10.667v10.667h-10.667c-5.888 0-10.667 4.779-10.667 10.667s4.779 10.667 10.667 10.667h10.667v29.163l-83.925 146.88c-1.877 3.307-1.877 7.36.021 10.645 1.92 3.285 5.44 5.312 9.237 5.312h10.667v266.667c0 5.888 4.779 10.667 10.667 10.667h128c5.888 0 10.667-4.779 10.667-10.667v-266.668h10.667c3.797 0 7.317-2.027 9.237-5.312 1.899-3.286 1.899-7.339.021-10.646zm-94.592 122.624c-17.643 0-32-14.357-32-32s14.357-32 32-32 32 14.357 32 32-14.357 32-32 32z"/></g></g></g><g/><g/><g/><g/><g/><g/><g/><g/><g/><g/><g/><g/><g/><g/><g/></svg>