<svg width="180" height="22" viewBox="0 0 180 22" fill="none" xmlns="http://www.w3.org/2000/svg">
<path d="M172.738 11.1126C172.738 7.42874 169.741 4.43155 166.058 4.43155H95.6052C92.5642 4.43155 90.0882 6.90779 90.0882 9.94896C90.0882 12.9901 92.5642 15.4664 95.6052 15.4664C97.6077 15.4664 99.4546 14.3805 100.429 12.6315L100.442 12.6079C100.94 11.6404 101.027 10.5376 100.696 9.5058C100.652 9.36372 100.598 9.22841 100.54 9.09648H162.377C161.495 10.02 160.95 11.2716 160.95 12.6485C160.95 15.4697 163.233 17.7667 166.051 17.7904C166.054 17.7904 166.058 17.7904 166.061 17.7904C166.068 17.7904 166.071 17.7904 166.078 17.7904C166.085 17.7904 166.088 17.7904 166.095 17.7904C169.762 17.7734 172.738 14.7864 172.738 11.1126ZM162.543 12.6485C162.543 10.6898 164.136 9.09648 166.095 9.09648H166.149C167.282 9.09648 168.206 10.02 168.206 11.1532C168.206 12.1782 167.492 13.2777 166.426 13.2777C165.855 13.2777 165.246 12.9191 165.215 12.3169C165.202 12.0531 165.293 11.8095 165.473 11.6201C165.652 11.4306 165.892 11.3291 166.152 11.3291C166.592 11.3291 166.947 10.9739 166.947 10.5342C166.947 10.0944 166.592 9.73921 166.152 9.73921C165.462 9.73921 164.793 10.0268 164.319 10.5274C163.835 11.0348 163.592 11.7013 163.626 12.4015C163.697 13.7885 164.928 14.8744 166.43 14.8744C168.29 14.8744 169.802 13.2066 169.802 11.1566C169.802 9.14384 168.165 7.50993 166.156 7.50993H99.2821C99.0994 7.37123 98.9032 7.24607 98.6935 7.13781C96.6978 6.11282 94.242 6.90102 93.2205 8.89013C92.5507 10.1553 93.0378 11.7283 94.3029 12.3981C94.9151 12.7229 95.6187 12.7871 96.2817 12.5842C96.9447 12.3812 97.4859 11.9279 97.8106 11.3156C98.017 10.9266 97.8681 10.4462 97.4791 10.2399C97.0902 10.0335 96.6098 10.1824 96.4035 10.5714C96.2783 10.8082 96.0686 10.9807 95.8115 11.0619C95.5545 11.1397 95.2838 11.116 95.0471 10.9909C94.56 10.7338 94.3705 10.1249 94.631 9.62758C94.9321 9.03897 95.4462 8.60259 96.0754 8.403C96.7045 8.20003 97.3743 8.25415 97.9629 8.55861C98.5514 8.85968 98.9878 9.37387 99.1873 10.0031C99.3869 10.6289 99.3362 11.2953 99.0385 11.8806C98.3451 13.1187 97.0326 13.8866 95.612 13.8866C93.4471 13.8866 91.6882 12.1241 91.6882 9.96248C91.6882 7.79747 93.4505 6.03839 95.612 6.03839H166.068C168.872 6.03839 171.155 8.32181 171.155 11.1262C171.155 13.9238 168.886 16.2004 166.092 16.2139C164.13 16.1937 162.543 14.6037 162.543 12.6485Z" fill="url(#paint0_linear)"/>
<path d="M13.5538 17.7904C16.3715 17.7667 18.6547 15.4697 18.6547 12.6485C18.6547 11.2716 18.1101 10.02 17.2273 9.09648H79.0643C79.0068 9.22841 78.9527 9.3671 78.9087 9.5058C78.5772 10.5409 78.6652 11.6438 79.1624 12.6079L79.176 12.6315C80.1501 14.3805 81.997 15.4664 83.9995 15.4664C87.0439 15.4664 89.5165 12.9901 89.5165 9.94896C89.5165 6.90779 87.0405 4.43155 83.9995 4.43155H13.5436C9.86001 4.43155 6.86304 7.42874 6.86304 11.1126C6.86304 14.7864 9.8431 17.7734 13.5098 17.7904C13.5166 17.7904 13.52 17.7904 13.5267 17.7904C13.5335 17.7904 13.5369 17.7904 13.5436 17.7904C13.547 17.7937 13.5504 17.7904 13.5538 17.7904ZM8.45623 11.1126C8.45623 8.30827 10.7395 6.02487 13.5436 6.02487H83.9961C86.161 6.02487 87.9199 7.78733 87.9199 9.94896C87.9199 12.114 86.1576 13.873 83.9961 13.873C82.5755 13.873 81.2664 13.1051 80.5696 11.867C80.2719 11.2818 80.2212 10.6154 80.4208 9.98955C80.6237 9.36034 81.0567 8.84615 81.6453 8.54507C82.2338 8.244 82.9036 8.1865 83.5327 8.38947C84.1619 8.59244 84.676 9.02544 84.9805 9.6242C85.2376 10.1113 85.0515 10.7202 84.561 10.9773C84.3243 11.1025 84.0536 11.1262 83.7966 11.0484C83.5395 10.9706 83.3298 10.7947 83.2046 10.5579C82.9983 10.1688 82.518 10.02 82.129 10.2263C81.74 10.4327 81.5911 10.9131 81.7975 11.3021C82.1222 11.9144 82.6634 12.3643 83.3264 12.5707C83.9894 12.7736 84.6896 12.7093 85.3052 12.3846C86.5703 11.7148 87.0574 10.1418 86.391 8.88674C85.3661 6.89087 82.9103 6.10267 80.9146 7.12767C80.7049 7.23592 80.5087 7.36108 80.326 7.49978H13.4523C11.4397 7.49978 9.80589 9.13707 9.80589 11.1465C9.80589 13.1965 11.3179 14.8642 13.1783 14.8642C14.6802 14.8642 15.9115 13.7783 15.9825 12.3914C16.0163 11.6877 15.7728 11.0247 15.2891 10.5173C14.8121 10.0166 14.1457 9.72907 13.4557 9.72907C13.016 9.72907 12.6608 10.0843 12.6608 10.524C12.6608 10.9638 13.016 11.319 13.4557 11.319C13.7162 11.319 13.9563 11.4239 14.1356 11.6099C14.3149 11.7994 14.4062 12.0463 14.3927 12.3068C14.3622 12.9055 13.7534 13.2675 13.1817 13.2675C12.1162 13.2675 11.4025 12.1681 11.4025 11.1431C11.4025 10.0098 12.3259 9.08633 13.4591 9.08633H13.5132C15.4717 9.08633 17.0649 10.6796 17.0649 12.6383C17.0649 14.5936 15.4785 16.1835 13.5267 16.1903C10.7293 16.1869 8.45623 13.9102 8.45623 11.1126Z" fill="url(#paint1_linear)"/>
<path d="M89.8008 5.2197C90.9476 5.2197 91.8779 4.28942 91.8779 3.14264C91.8779 1.99586 90.9476 1.06558 89.8008 1.06558C88.654 1.06558 87.7238 1.99586 87.7238 3.14264C87.7271 4.28942 88.6574 5.2197 89.8008 5.2197Z" fill="url(#paint2_linear)"/>
<path d="M89.8008 12.4455C89.8008 12.4455 87.7238 15.649 87.7238 16.7992C87.7238 17.946 89.8008 21.1529 89.8008 21.1529C89.8008 21.1529 91.8779 17.946 91.8779 16.7992C91.8779 15.649 89.8008 12.4455 89.8008 12.4455Z" fill="url(#paint3_linear)"/>
<path d="M165.128 3.55197C165.943 4.36047 167.255 4.3537 168.064 3.53844C168.869 2.72317 168.866 1.40726 168.05 0.602141C167.235 -0.206356 165.919 -0.199598 165.114 0.615665C164.306 1.43093 164.312 2.74686 165.128 3.55197Z" fill="url(#paint4_linear)"/>
<path d="M179.534 14.3228C179.534 14.3228 178.719 10.5916 177.904 9.78647C177.089 8.98136 173.351 8.19992 173.351 8.19992C173.351 8.19992 174.166 11.9312 174.981 12.7363C175.796 13.5414 179.534 14.3228 179.534 14.3228Z" fill="url(#paint5_linear)"/>
<path d="M11.4837 0.602178C10.6684 1.41067 10.6617 2.72321 11.4701 3.53847C12.2753 4.35374 13.5912 4.3605 14.4064 3.55201C15.2217 2.74351 15.2285 1.43096 14.42 0.615701C13.6115 -0.199561 12.2989 -0.202937 11.4837 0.602178Z" fill="url(#paint6_linear)"/>
<path d="M6.18382 8.19992C6.18382 8.19992 2.44579 8.98136 1.63053 9.78647C0.815262 10.595 0 14.3228 0 14.3228C0 14.3228 3.73803 13.5414 4.55329 12.7363C5.36856 11.9278 6.18382 8.19992 6.18382 8.19992Z" fill="url(#paint7_linear)"/>
<defs>
<linearGradient id="paint0_linear" x1="131.413" y1="4.43155" x2="131.413" y2="17.7904" gradientUnits="userSpaceOnUse">
<stop stop-color="#622E0B"/>
<stop offset="1" stop-color="#A9571F"/>
</linearGradient>
<linearGradient id="paint1_linear" x1="48.1898" y1="4.43155" x2="48.1898" y2="17.7919" gradientUnits="userSpaceOnUse">
<stop stop-color="#622E0B"/>
<stop offset="1" stop-color="#A9571F"/>
</linearGradient>
<linearGradient id="paint2_linear" x1="89.8008" y1="1.06558" x2="89.8008" y2="5.2197" gradientUnits="userSpaceOnUse">
<stop stop-color="#622E0B"/>
<stop offset="1" stop-color="#A9571F"/>
</linearGradient>
<linearGradient id="paint3_linear" x1="89.8008" y1="12.4455" x2="89.8008" y2="21.1529" gradientUnits="userSpaceOnUse">
<stop stop-color="#622E0B"/>
<stop offset="1" stop-color="#A9571F"/>
</linearGradient>
<linearGradient id="paint4_linear" x1="166.588" y1="-3.05176e-05" x2="166.588" y2="4.15414" gradientUnits="userSpaceOnUse">
<stop stop-color="#622E0B"/>
<stop offset="1" stop-color="#A9571F"/>
</linearGradient>
<linearGradient id="paint5_linear" x1="176.442" y1="8.19992" x2="176.442" y2="14.3228" gradientUnits="userSpaceOnUse">
<stop stop-color="#622E0B"/>
<stop offset="1" stop-color="#A9571F"/>
</linearGradient>
<linearGradient id="paint6_linear" x1="12.9451" y1="0.00128174" x2="12.9451" y2="4.15417" gradientUnits="userSpaceOnUse">
<stop stop-color="#622E0B"/>
<stop offset="1" stop-color="#A9571F"/>
</linearGradient>
<linearGradient id="paint7_linear" x1="3.09191" y1="8.19992" x2="3.09191" y2="14.3228" gradientUnits="userSpaceOnUse">
<stop stop-color="#622E0B"/>
<stop offset="1" stop-color="#A9571F"/>
</linearGradient>
</defs>
</svg>
