<svg width="180" height="22" viewBox="0 0 180 22" fill="none" xmlns="http://www.w3.org/2000/svg">
<path d="M6.79614 10.0402C6.79614 13.7241 9.79311 16.7213 13.4767 16.7213L83.9292 16.7213C86.9702 16.7213 89.4462 14.2451 89.4462 11.2039C89.4462 8.16277 86.9702 5.68654 83.9292 5.68654C81.9267 5.68654 80.0798 6.77243 79.1057 8.52135L79.0921 8.54503C78.5949 9.51252 78.5069 10.6153 78.8384 11.6471C78.8824 11.7892 78.9365 11.9245 78.994 12.0564L17.157 12.0564C18.0398 11.1329 18.5844 9.88125 18.5844 8.50444C18.5844 5.68315 16.3012 3.38621 13.4835 3.36253C13.4801 3.36253 13.4767 3.36253 13.4734 3.36253C13.4666 3.36253 13.4632 3.36253 13.4564 3.36253C13.4497 3.36253 13.4463 3.36253 13.4395 3.36253C9.77281 3.37944 6.79614 6.36649 6.79614 10.0402ZM16.9912 8.50444C16.9912 10.4631 15.398 12.0564 13.4395 12.0564L13.3854 12.0564C12.2522 12.0564 11.3288 11.1329 11.3288 9.99964C11.3288 8.97464 12.0425 7.87522 13.108 7.87522C13.6797 7.87522 14.2886 8.2338 14.319 8.83595C14.3325 9.09981 14.2412 9.34338 14.0619 9.53282C13.8826 9.72226 13.6425 9.82374 13.382 9.82374C12.9423 9.82374 12.5871 10.1789 12.5871 10.6187C12.5871 11.0585 12.9423 11.4137 13.382 11.4137C14.0721 11.4137 14.7418 11.1261 15.2154 10.6255C15.6991 10.118 15.9426 9.45162 15.9088 8.75138C15.8378 7.36441 14.6065 6.27853 13.1047 6.27853C11.2442 6.27853 9.73222 7.94627 9.73222 9.99627C9.73222 12.0091 11.3694 13.643 13.3787 13.643L80.2524 13.643C80.435 13.7817 80.6312 13.9068 80.8409 14.0151C82.8367 15.0401 85.2924 14.2519 86.314 12.2628C86.9837 10.9976 86.4966 9.42457 85.2315 8.75477C84.6193 8.43002 83.9157 8.36575 83.2527 8.56872C82.5897 8.77169 82.0485 9.22499 81.7238 9.83728C81.5175 10.2263 81.6663 10.7067 82.0553 10.913C82.4443 11.1194 82.9246 10.9705 83.1309 10.5815C83.2561 10.3447 83.4658 10.1722 83.7229 10.091C83.98 10.0132 84.2506 10.0369 84.4874 10.162C84.9744 10.4191 85.1639 11.028 84.9034 11.5253C84.6024 12.1139 84.0882 12.5503 83.459 12.7499C82.8299 12.9529 82.1601 12.8987 81.5716 12.5943C80.983 12.2932 80.5466 11.779 80.3471 11.1498C80.1475 10.524 80.1982 9.85757 80.4959 9.27234C81.1893 8.03422 82.5018 7.26631 83.9225 7.26631C86.0873 7.26631 87.8463 9.02878 87.8463 11.1904C87.8463 13.3554 86.0839 15.1145 83.9225 15.1145L13.4666 15.1145C10.6624 15.1145 8.37918 12.8311 8.37918 10.0267C8.37918 7.22911 10.6489 4.95247 13.4429 4.93894C15.4048 4.95923 16.9912 6.54916 16.9912 8.50444Z" fill="url(#paint0_linear)"/>
<path d="M165.981 3.36253C163.163 3.38621 160.88 5.68316 160.88 8.50444C160.88 9.88125 161.424 11.1329 162.307 12.0564L100.47 12.0564C100.528 11.9245 100.582 11.7858 100.626 11.6471C100.957 10.6119 100.869 9.50913 100.372 8.54503L100.358 8.52134C99.3843 6.77242 97.5374 5.68653 95.5349 5.68653C92.4906 5.68653 90.0179 8.16276 90.0179 11.2039C90.0179 14.2451 92.4939 16.7213 95.5349 16.7213L165.991 16.7213C169.674 16.7213 172.671 13.7242 172.671 10.0402C172.671 6.36649 169.691 3.37945 166.025 3.36253C166.018 3.36253 166.014 3.36253 166.008 3.36253C166.001 3.36253 165.998 3.36253 165.991 3.36253C165.987 3.35915 165.984 3.36253 165.981 3.36253ZM171.078 10.0402C171.078 12.8446 168.795 15.128 165.991 15.128L95.5383 15.128C93.3734 15.128 91.6145 13.3656 91.6145 11.2039C91.6145 9.03891 93.3768 7.27985 95.5383 7.27985C96.959 7.27985 98.268 8.04775 98.9648 9.28587C99.2625 9.8711 99.3132 10.5375 99.1137 11.1633C98.9107 11.7925 98.4777 12.3067 97.8892 12.6078C97.3006 12.9089 96.6309 12.9664 96.0017 12.7634C95.3725 12.5604 94.8584 12.1274 94.5539 11.5287C94.2969 11.0416 94.4829 10.4326 94.9734 10.1756C95.2102 10.0504 95.4808 10.0267 95.7379 10.1045C95.9949 10.1823 96.2047 10.3582 96.3298 10.595C96.5361 10.984 97.0165 11.1329 97.4055 10.9265C97.7945 10.7202 97.9433 10.2398 97.737 9.8508C97.4122 9.2385 96.871 8.78859 96.208 8.58223C95.545 8.37926 94.8448 8.44354 94.2292 8.76829C92.9641 9.4381 92.477 11.0111 93.1434 12.2661C94.1683 14.262 96.6241 15.0502 98.6198 14.0252C98.8295 13.917 99.0257 13.7918 99.2084 13.6531L166.082 13.6531C168.095 13.6531 169.729 12.0158 169.729 10.0064C169.729 7.95642 168.217 6.28869 166.356 6.28869C164.854 6.28869 163.623 7.37458 163.552 8.76154C163.518 9.46517 163.762 10.1282 164.245 10.6356C164.722 11.1363 165.389 11.4238 166.079 11.4238C166.518 11.4238 166.874 11.0686 166.874 10.6289C166.874 10.1891 166.518 9.83389 166.079 9.83389C165.818 9.83389 165.578 9.72903 165.399 9.54297C165.22 9.35353 165.128 9.10659 165.142 8.84611C165.172 8.24735 165.781 7.88538 166.353 7.88538C167.418 7.88538 168.132 8.9848 168.132 10.0098C168.132 11.143 167.209 12.0666 166.075 12.0666L166.021 12.0666C164.063 12.0666 162.47 10.4732 162.47 8.51459C162.47 6.55931 164.056 4.96937 166.008 4.9626C168.805 4.96599 171.078 7.24265 171.078 10.0402Z" fill="url(#paint1_linear)"/>
<path d="M89.7336 15.9332C88.5868 15.9332 87.6566 16.8635 87.6566 18.0103C87.6566 19.157 88.5868 20.0873 89.7336 20.0873C90.8804 20.0873 91.8107 19.157 91.8107 18.0103C91.8073 16.8635 90.877 15.9332 89.7336 15.9332Z" fill="url(#paint2_linear)"/>
<path d="M89.7336 8.70743C89.7336 8.70743 91.8107 5.50388 91.8107 4.35371C91.8107 3.20693 89.7336 1.03088e-05 89.7336 1.03088e-05C89.7336 1.03088e-05 87.6566 3.20693 87.6566 4.35371C87.6566 5.50388 89.7336 8.70743 89.7336 8.70743Z" fill="url(#paint3_linear)"/>
<path d="M14.4069 17.6009C13.5916 16.7924 12.2791 16.7992 11.4706 17.6145C10.6655 18.4297 10.6689 19.7456 11.4841 20.5508C12.2994 21.3592 13.6153 21.3525 14.4204 20.5372C15.2289 19.722 15.2222 18.406 14.4069 17.6009Z" fill="url(#paint4_linear)"/>
<path d="M1.10257e-05 6.83001C1.10257e-05 6.83001 0.815275 10.5613 1.63054 11.3664C2.4458 12.1715 6.18384 12.9529 6.18384 12.9529C6.18384 12.9529 5.36857 9.22168 4.55331 8.41656C3.73805 7.61145 1.10257e-05 6.83001 1.10257e-05 6.83001Z" fill="url(#paint5_linear)"/>
<path d="M168.051 20.5507C168.866 19.7422 168.873 18.4297 168.064 17.6144C167.259 16.7992 165.943 16.7924 165.128 17.6009C164.313 18.4094 164.306 19.7219 165.114 20.5372C165.923 21.3525 167.235 21.3558 168.051 20.5507Z" fill="url(#paint6_linear)"/>
<path d="M173.351 12.953C173.351 12.953 177.089 12.1715 177.904 11.3664C178.719 10.5579 179.534 6.83004 179.534 6.83004C179.534 6.83004 175.796 7.61148 174.981 8.41659C174.166 9.22509 173.351 12.953 173.351 12.953Z" fill="url(#paint7_linear)"/>
<defs>
<linearGradient id="paint0_linear" x1="48.1212" y1="16.7213" x2="48.1212" y2="3.36253" gradientUnits="userSpaceOnUse">
<stop stop-color="#622E0B"/>
<stop offset="1" stop-color="#A9571F"/>
</linearGradient>
<linearGradient id="paint1_linear" x1="131.345" y1="16.7213" x2="131.345" y2="3.36103" gradientUnits="userSpaceOnUse">
<stop stop-color="#622E0B"/>
<stop offset="1" stop-color="#A9571F"/>
</linearGradient>
<linearGradient id="paint2_linear" x1="89.7336" y1="20.0873" x2="89.7336" y2="15.9332" gradientUnits="userSpaceOnUse">
<stop stop-color="#622E0B"/>
<stop offset="1" stop-color="#A9571F"/>
</linearGradient>
<linearGradient id="paint3_linear" x1="89.7336" y1="8.70743" x2="89.7336" y2="1.03088e-05" gradientUnits="userSpaceOnUse">
<stop stop-color="#622E0B"/>
<stop offset="1" stop-color="#A9571F"/>
</linearGradient>
<linearGradient id="paint4_linear" x1="12.9461" y1="21.1529" x2="12.9461" y2="16.9988" gradientUnits="userSpaceOnUse">
<stop stop-color="#622E0B"/>
<stop offset="1" stop-color="#A9571F"/>
</linearGradient>
<linearGradient id="paint5_linear" x1="3.09192" y1="12.9529" x2="3.09192" y2="6.83001" gradientUnits="userSpaceOnUse">
<stop stop-color="#622E0B"/>
<stop offset="1" stop-color="#A9571F"/>
</linearGradient>
<linearGradient id="paint6_linear" x1="166.589" y1="21.1516" x2="166.589" y2="16.9987" gradientUnits="userSpaceOnUse">
<stop stop-color="#622E0B"/>
<stop offset="1" stop-color="#A9571F"/>
</linearGradient>
<linearGradient id="paint7_linear" x1="176.443" y1="12.953" x2="176.443" y2="6.83004" gradientUnits="userSpaceOnUse">
<stop stop-color="#622E0B"/>
<stop offset="1" stop-color="#A9571F"/>
</linearGradient>
</defs>
</svg>
