<svg width="787" height="794" viewBox="0 0 787 794" fill="none" xmlns="http://www.w3.org/2000/svg">
<path d="M121.326 109.771C121.237 109.796 121.152 109.72 121.169 109.629V109.629L122.893 100.384C123.908 94.9418 127.665 90.4108 132.825 88.405L141.832 84.904C144.583 83.8347 147.577 83.5472 150.481 84.0733L170.084 87.6244L195.157 89.5952C196.103 89.6695 197.054 89.6596 197.998 89.5655L219.673 87.4048C222.066 87.1663 224.482 87.4703 226.742 88.2942L251.696 97.3944C252.709 97.7635 253.755 98.0294 254.821 98.1881L285.242 102.719L300.217 105.031L322.027 108.4C325.813 108.984 329.684 108.191 332.935 106.164L360.737 88.8275C363.602 87.0404 367.24 89.4577 366.702 92.7921V92.7921C366.672 92.9814 366.627 93.1681 366.57 93.3509L365.523 96.6643C364.562 99.7065 362.713 102.392 360.214 104.376L360.175 104.407V104.407C357.77 106.612 356.267 109.628 355.953 112.875L354.934 123.432C354.766 125.168 354.884 126.919 355.281 128.617L358.851 143.864L362.044 159.254C362.181 159.917 362.366 160.568 362.597 161.204L364.59 166.692C366.072 170.774 370.521 172.948 374.651 171.609V171.609C375.57 171.312 376.427 170.852 377.182 170.251L379.322 168.55C382.577 165.964 386.71 164.746 390.847 165.153L401.833 166.236C405.374 166.585 408.696 168.104 411.277 170.552L426.479 184.977L433.337 190.429C435.245 191.946 436.781 193.879 437.828 196.08L441.037 202.823L443.787 209.155L444.853 211.61C445.53 213.169 446.451 214.61 447.582 215.879L450.389 219.031V219.031C452.242 221.11 450.915 224.412 448.138 224.631L443.025 225.035C442.158 225.103 441.316 225.362 440.56 225.793L438.616 226.901L432.957 230.124C431.374 231.026 429.649 231.65 427.856 231.971L417.254 233.867C415.628 234.158 414.057 234.699 412.596 235.471L404.418 239.792C402.09 241.022 400.102 242.808 398.629 244.991L394.443 251.198C393.123 253.154 391.376 254.785 389.334 255.967V255.967C383.993 259.057 377.331 258.702 372.349 255.06L371.374 254.347C370.627 253.801 369.835 253.322 369.006 252.913L366.481 251.668C361.539 249.231 355.691 249.509 351.002 252.403L347.928 254.3L338.977 259.687L336.172 261.375L328.122 264.898L320.071 268.421L305.456 273.824C304.442 274.199 303.394 274.47 302.326 274.633L288.914 276.683C287.552 276.892 286.223 277.275 284.959 277.824L270.346 284.169L245.027 292.901C244.075 293.23 243.095 293.467 242.098 293.611L217.07 297.227C216.251 297.345 215.442 297.527 214.652 297.77L203.872 301.087C202.948 301.371 201.999 301.572 201.038 301.685L197.62 302.087C192.455 302.695 187.317 300.756 183.843 296.886L180.367 293.015C180.005 292.611 179.612 292.236 179.192 291.893V291.893C174.282 287.883 166.967 289.082 163.595 294.451L162.832 295.666C162.518 296.167 162.241 296.69 162.005 297.232L156.556 309.746C155.641 311.846 154.287 313.725 152.583 315.256L141.201 325.489L126.385 336.218L119.135 341.877V341.877C119.113 341.893 119.084 341.895 119.06 341.883L112.61 338.579C111.514 338.017 110.512 337.288 109.64 336.418L95.613 322.416C94.3651 321.171 93.3317 319.727 92.5545 318.145L90.7845 314.54L74.6876 281.372C74.0298 280.016 73.1839 278.761 72.175 277.642L67.4683 272.423C66.1148 270.922 64.4893 269.691 62.6776 268.796L57.5507 266.261C55.8425 265.416 53.9971 264.884 52.1016 264.688L17.6796 261.137C15.971 260.961 14.302 260.51 12.7366 259.804L9.26762 258.237C5.36914 256.477 2.70275 252.774 2.26915 248.518V248.518V248.518C1.96004 245.489 3.37236 242.541 5.927 240.884L20.7629 231.261C24.1117 229.089 28.1516 228.247 32.0894 228.9L86.7098 237.964C88.0925 238.193 89.4994 238.24 90.8943 238.103L111.519 236.076C114.114 235.82 116.571 234.785 118.566 233.105V233.105C119.933 231.955 121.046 230.533 121.835 228.929L122.313 227.957C122.933 226.696 123.385 225.359 123.655 223.98L127.557 204.123C127.685 203.467 127.869 202.823 128.104 202.197V202.197C128.806 200.328 129.96 198.662 131.462 197.347L136.37 193.05C137.221 192.305 137.991 191.472 138.666 190.564L143.615 183.914C144.493 182.733 145.205 181.437 145.729 180.063L149.167 171.046C149.455 170.291 149.686 169.514 149.856 168.724L156.533 137.814L156.67 136.221C156.749 135.306 156.749 134.385 156.669 133.47L156.604 132.712C156.557 132.174 156.469 131.639 156.34 131.114V131.114C155.999 129.727 155.379 128.425 154.518 127.286L146.735 116.989C146.248 116.346 145.714 115.74 145.136 115.177L142.042 112.163C141.028 111.175 139.878 110.338 138.627 109.676V109.676C136.217 108.402 133.503 107.817 130.782 107.985L126.93 108.223C126.688 108.238 126.448 108.28 126.215 108.347L121.326 109.771Z" stroke="#161616" stroke-width="3" stroke-linecap="round" stroke-linejoin="round"/>
<path d="M119.138 341.916C119.121 341.907 119.119 341.882 119.135 341.871V341.871L126.385 336.212L141.201 325.482L152.583 315.25C154.286 313.719 155.641 311.839 156.556 309.74L162.005 297.226C162.241 296.684 162.517 296.161 162.832 295.66L163.595 294.444C166.967 289.076 174.281 287.876 179.192 291.887V291.887C179.612 292.23 180.004 292.605 180.367 293.008L183.843 296.88C187.317 300.749 192.455 302.689 197.619 302.081L201.038 301.678C201.999 301.565 202.948 301.365 203.872 301.08L214.651 297.764C215.442 297.52 216.251 297.339 217.069 297.22L242.098 293.605C243.094 293.461 244.075 293.223 245.027 292.895L270.346 284.163L284.959 277.817C286.223 277.268 287.552 276.885 288.914 276.677L302.326 274.626C303.394 274.463 304.442 274.192 305.455 273.818L320.071 268.415L328.122 264.892L332.147 263.13L334.159 262.25L334.363 262.161C335.048 261.861 335.761 262.525 335.51 263.23V263.23L334.849 265.091L333.525 268.813L332.457 271.817C331.426 274.715 331.253 277.849 331.958 280.843L332.438 282.882C333.376 286.871 335.809 290.347 339.235 292.595L341.454 294.05C342.265 294.582 343.026 295.187 343.727 295.857L348.451 300.369C349.843 301.697 350.983 303.266 351.817 305L362.951 328.128C363.51 329.29 363.927 330.515 364.192 331.776L370.333 360.985L374.284 376.445L375.71 386.175L375.889 387.391C376.323 390.357 375.839 393.385 374.5 396.067V396.067L370.252 404.578L366.431 414.62C365.54 416.962 365.224 419.485 365.51 421.975L365.558 422.385C366.195 427.928 369.862 432.657 375.071 434.654V434.654L380.604 437.33C381.848 437.932 383.003 438.702 384.037 439.62V439.62C387.243 442.467 391.513 443.808 395.772 443.303L399.608 442.849C402.971 442.451 405.958 440.512 407.692 437.603V437.603L416.688 422.499V422.499C416.732 422.425 416.8 422.37 416.881 422.343L424.282 419.8C426.169 419.151 428.175 418.922 430.161 419.127V419.127C434.83 419.61 438.93 422.443 441.034 426.639L441.867 428.301C442.651 429.866 443.173 431.548 443.412 433.281L444.358 440.125L444.673 442.405L444.83 443.545V443.545C444.918 444.179 444.484 444.767 443.852 444.871L432.425 446.741C429.435 447.23 426.707 448.745 424.712 451.026L421.414 454.793V454.793C419.245 457.272 419.285 460.984 421.506 463.416L422.598 464.612C423.647 465.761 424.351 467.181 424.63 468.711L425.181 471.731L426.259 477.636V477.636C426.425 478.538 426.225 479.47 425.703 480.225L420.966 487.089C419.856 488.698 418.461 490.089 416.849 491.195L408.696 496.789L393.622 507.35L383.918 514.891C380.591 517.476 376.379 518.645 372.196 518.144L365.02 517.283C362.623 516.996 360.323 516.17 358.291 514.868L354.258 512.284L352.108 510.906C351.173 510.307 350.157 509.843 349.092 509.531L347.973 509.202C347.899 509.18 347.828 509.151 347.761 509.114V509.114C347.473 508.955 347.276 508.67 347.229 508.344L347.148 507.79C347.141 507.744 347.138 507.697 347.138 507.651V507.651C347.138 507.256 347.379 506.9 347.746 506.754L350.272 505.744C351.153 505.393 351.915 504.797 352.469 504.027L352.893 503.437C353.764 502.227 354.253 500.785 354.297 499.295L354.305 499.056C354.346 497.68 354.043 496.316 353.423 495.088L353.032 494.313C352.183 492.63 351.754 490.766 351.782 488.881L351.787 488.548C351.833 485.375 353.186 482.361 355.527 480.218V480.218C356.057 479.733 356.631 479.298 357.242 478.92L359.195 477.71C360.965 476.614 362.42 475.078 363.419 473.252V473.252C364.662 470.979 365.138 468.367 364.778 465.802L364.681 465.115C364.357 462.805 363.465 460.612 362.087 458.731L361.224 457.552C360.086 455.999 358.677 454.664 357.066 453.612L355.613 452.663C353.991 451.604 352.191 450.848 350.299 450.433L349.448 450.246C347.823 449.888 346.151 449.787 344.495 449.945L324.985 451.806C323.57 451.941 322.144 451.886 320.744 451.645L318.957 451.336C316.555 450.921 314.28 449.963 312.305 448.536L311.596 448.023C310.258 447.056 309.078 445.887 308.098 444.559L301.746 435.955C300.964 434.896 300.053 433.938 299.033 433.104V433.104C296.509 431.04 293.41 429.806 290.159 429.571L286.542 429.309C283.621 429.097 280.697 429.692 278.09 431.027L257.881 441.381C256.605 442.035 255.247 442.514 253.844 442.806L246.731 444.286C244.076 444.838 241.323 444.706 238.733 443.902L237.788 443.609C235.419 442.875 233.254 441.6 231.463 439.885L230.454 438.919C229.211 437.728 228.167 436.345 227.365 434.822L220.345 421.504C219.854 420.572 219.272 419.691 218.607 418.873L216.006 415.672C214.742 414.117 213.197 412.813 211.452 411.828L209.137 410.521C208.059 409.913 206.914 409.432 205.725 409.088L196.081 406.294C194.057 405.707 192.169 404.727 190.524 403.409L183.779 398C181.951 396.535 180.468 394.686 179.433 392.585L167.478 368.304C166.675 366.674 165.601 365.193 164.301 363.924L158.616 358.373C156.775 356.575 154.527 355.248 152.064 354.504L132.405 348.566C131.93 348.423 131.469 348.237 131.028 348.011L119.138 341.916Z" stroke="#161616" stroke-width="3" stroke-linecap="round" stroke-linejoin="round"/>
<path d="M393.869 625.641C393.222 625.573 392.667 625.148 392.433 624.541V624.541C392.361 624.352 392.256 624.178 392.123 624.026L389.754 621.304L387.227 618.988L372.218 608.443C371.346 607.83 370.537 607.132 369.804 606.359L363.245 599.439C362.195 598.331 361.309 597.079 360.614 595.721L358.758 592.095C358.219 591.041 357.798 589.931 357.504 588.784L355.932 582.665L354.621 579.34C353.628 576.825 352.015 574.602 349.93 572.879L348.683 571.848C347.569 570.928 346.335 570.162 345.016 569.573L321.261 558.962C320.093 558.44 318.991 557.78 317.981 556.996L310.781 551.412C308.301 549.488 306.441 546.877 305.434 543.904L303.606 538.51C302.39 534.922 302.487 531.02 303.878 527.497L304.793 525.182C306.059 521.977 308.325 519.266 311.256 517.453L316.338 514.309C318.013 513.272 319.866 512.554 321.803 512.19L340.6 508.659C344.625 507.903 348.787 508.72 352.228 510.94L358.284 514.848C360.326 516.165 362.642 517 365.054 517.29L372.205 518.147C376.388 518.648 380.6 517.479 383.927 514.894L393.631 507.353L407.724 497.479C408.35 497.04 409.13 496.877 409.881 497.027V497.027L411.056 497.261L413.407 497.731L418.108 498.67L424.271 499.587C426.321 499.891 428.411 499.795 430.424 499.303L435.416 498.082L437.852 497.447C441.399 496.523 445.174 497.239 448.135 499.4V499.4C449.415 500.334 450.502 501.508 451.334 502.857L452.724 505.112V505.112C454.002 507.183 454.311 509.709 453.569 512.026L453.505 512.226L451.703 517.855C451.226 519.346 450.533 520.758 449.646 522.048L445.095 528.662C444.493 529.538 443.805 530.351 443.041 531.09L438.989 535.012C436.504 537.416 434.865 540.561 434.317 543.975L433.533 548.865C432.999 552.197 433.532 555.613 435.056 558.624L438.163 564.763L443.17 572.319C444.667 574.576 445.565 577.177 445.782 579.877L446.548 589.42C446.686 591.129 447.097 592.805 447.766 594.384L450.628 601.134C451.962 604.281 454.269 606.918 457.211 608.659L465.781 613.73L472.074 618.274L475.22 620.545L476.793 621.681V621.681C477.525 622.21 477.46 623.321 476.67 623.759L462.879 631.418L449.813 639.919C448.573 640.726 447.45 641.701 446.478 642.817L435.219 655.732L430.977 661.889C427.168 667.418 419.712 669.024 413.964 665.553V665.553C410.61 663.527 408.379 660.065 407.921 656.173L405.232 633.337C404.779 629.487 401.719 626.465 397.863 626.06L393.869 625.641Z" stroke="#161616" stroke-width="3" stroke-linecap="round" stroke-linejoin="round"/>
<path d="M393.674 627.74C393.281 626.731 394.096 625.664 395.173 625.777L400.637 626.349C402.869 626.583 404.641 628.332 404.903 630.561L407.918 656.17C408.376 660.062 410.607 663.524 413.961 665.55V665.55C419.709 669.021 427.165 667.415 430.974 661.886L435.216 655.729L446.475 642.814C447.447 641.698 448.57 640.723 449.81 639.916L462.876 631.415L476.064 624.334L477.151 623.609V623.609C477.763 623.201 478.587 623.334 479.04 623.915L489.443 637.269C490.8 639.011 491.782 641.015 492.327 643.155L494.939 653.414L494.967 653.522C494.979 653.568 494.956 653.615 494.912 653.635V653.635C494.904 653.638 494.897 653.643 494.89 653.649L490.092 657.662C489.427 658.218 488.808 658.827 488.242 659.483L484.891 663.368C484.229 664.135 483.642 664.964 483.137 665.842L474.077 681.595L473.153 682.875C472.325 684.024 471.347 685.057 470.246 685.949L469.995 686.151C469.24 686.762 468.431 687.303 467.578 687.768L463.848 689.798C462.978 690.272 462.157 690.829 461.395 691.462V691.462C460.191 692.464 459.148 693.646 458.304 694.967L455.634 699.144C455.169 699.872 454.764 700.636 454.422 701.429L449.792 712.174C448.949 714.13 447.724 715.899 446.189 717.375L443.941 719.537C442.809 720.625 441.523 721.541 440.125 722.255L421.699 731.66C420.615 732.213 419.598 732.889 418.667 733.673L414.408 737.26C413.536 737.995 412.744 738.821 412.047 739.724L409.016 743.653C408.34 744.53 407.756 745.474 407.275 746.471L397.23 767.277L393.587 773.108C393.092 773.9 392.53 774.646 391.905 775.34L388.342 779.294C387.815 779.879 387.245 780.425 386.637 780.926L381.624 785.062L376.661 788.181C375.861 788.684 375.018 789.114 374.142 789.468L368.435 791.774C367.605 792.109 366.726 792.307 365.833 792.359V792.359C362.482 792.556 359.347 790.697 357.91 787.663L347.582 765.848C347.202 765.045 346.889 764.212 346.648 763.358L345.856 760.562C345.547 759.467 345.355 758.343 345.283 757.207L345.101 754.303C345.045 753.4 345.065 752.493 345.161 751.593L345.668 746.873L346.866 741.557C346.962 741.129 347.091 740.708 347.252 740.299V740.299C347.459 739.772 347.613 739.226 347.713 738.669L347.84 737.961L352.29 724.14C352.669 722.965 352.91 721.75 353.009 720.52L353.817 710.476C353.917 709.24 353.872 707.997 353.685 706.771L351.833 694.679L348.434 683.284C347.509 680.183 345.666 677.436 343.147 675.404L338.781 671.882C338.108 671.339 337.392 670.852 336.64 670.425L326.909 664.895C325.672 664.192 324.534 663.327 323.526 662.323L319.813 658.627C316.894 655.721 315.208 651.801 315.106 647.684L315.036 644.854C314.943 641.11 316.454 637.506 319.189 634.948V634.948C322.047 632.275 325.95 631.017 329.831 631.518L334.361 632.103C336.172 632.337 337.93 632.879 339.558 633.706L357.928 643.038C359.492 643.833 361.265 644.123 363.001 643.87V643.87C364.338 643.675 365.609 643.164 366.709 642.38L378.928 633.664C381.426 631.883 384.39 630.872 387.455 630.756L390.093 630.656C390.557 630.639 391.013 630.523 391.43 630.318L392.964 629.563C393.637 629.232 393.946 628.44 393.674 627.74V627.74Z" stroke="#161616" stroke-width="3" stroke-linecap="round" stroke-linejoin="round"/>
<path d="M551.274 643.021L530.122 654.977C528.972 655.627 527.723 656.082 526.425 656.324V656.324C524.66 656.652 522.844 656.579 521.112 656.109L519.218 655.596C518.417 655.379 517.634 655.1 516.875 654.761L510.23 651.792C508.332 650.944 506.267 650.533 504.188 650.59L502.362 650.64C501.687 650.659 501.023 650.815 500.409 651.098L495.162 653.52C495.071 653.563 494.963 653.512 494.938 653.414V653.414L492.313 643.101C491.777 640.996 490.818 639.022 489.494 637.299L479.788 624.668C478.843 623.439 477.724 622.353 476.467 621.445L465.777 613.727L457.207 608.656C454.266 606.915 451.959 604.278 450.625 601.131L447.763 594.381C447.093 592.802 446.682 591.126 446.545 589.417L445.779 579.874C445.562 577.174 444.663 574.573 443.167 572.316L438.159 564.76L435.052 558.621C433.528 555.61 432.995 552.194 433.53 548.862L434.314 543.973C434.862 540.558 436.5 537.413 438.985 535.009L439.672 534.344L443.085 531.041C443.756 530.392 444.744 530.194 445.613 530.534V530.534L447.04 531.091L449.894 532.207L455.603 534.438L457.001 534.985L457.411 535.145C458.664 535.635 459.977 535.953 461.316 536.089L464.606 536.425C469.744 536.949 474.536 533.771 476.052 528.834V528.834L477.927 522.729V522.729C478.262 521.639 478.229 520.468 477.832 519.398L475.384 512.792L474.464 510.311C473.368 507.357 474.446 504.037 477.068 502.289L480.117 500.256C480.562 499.96 481.141 499.961 481.584 500.259V500.259L488.861 505.136C489.892 505.827 491 506.396 492.163 506.831L496.42 508.423L498.855 509.349C501.105 510.205 502.931 511.908 503.94 514.093L503.978 514.175C504.618 515.56 504.889 517.087 504.766 518.607V518.607C504.537 521.425 505.668 524.183 507.808 526.031L514.301 531.634C515.141 532.359 516.054 532.995 517.026 533.531L525.841 538.394C527.554 539.339 528.956 540.761 529.876 542.487L530.044 542.802C531.991 546.455 536.059 548.451 540.14 547.752V547.752C541.96 547.441 543.651 546.612 545.011 545.365L546.114 544.354C548.322 542.33 551.096 541.029 554.064 540.626L557.033 540.223L557.572 540.193C560.598 540.021 563.002 537.585 563.134 534.557V534.557C563.164 533.875 563.075 533.193 562.871 532.541L561.642 528.605L559.605 522.086C558.828 519.599 559.187 516.895 560.587 514.697V514.697L563.534 510.066L565.008 507.751L565.965 506.246C566.259 505.785 566.853 505.619 567.343 505.861V505.861L568.205 506.286L569.928 507.136L573.376 508.837L580.271 512.239L589.677 517.816C592.184 519.302 594.237 521.444 595.615 524.011L600.816 533.701L602.894 536.869C606.323 542.097 612.484 544.849 618.666 543.914L618.973 543.868L623.562 542.848C627.684 541.933 632 542.684 635.57 544.937L639.111 547.172C640.778 548.224 642.236 549.575 643.412 551.157L645.861 554.451V554.451C645.921 554.532 645.897 554.647 645.81 554.697L641.8 556.974C641.622 557.075 641.437 557.163 641.247 557.237L604.772 571.469C603.888 571.814 603.037 572.237 602.228 572.732L587.029 582.046C585.782 582.81 584.657 583.757 583.693 584.855L583.477 585.101C582.132 586.632 581.161 588.453 580.638 590.422V590.422C580.3 591.696 579.773 592.911 579.075 594.029L567.265 612.924C566.624 613.95 566.101 615.045 565.707 616.189L560.289 631.903C560.004 632.73 559.651 633.532 559.235 634.302L558.662 635.361C558.145 636.315 557.533 637.215 556.835 638.045L555.755 639.329C554.525 640.791 553.044 642.021 551.381 642.961L551.274 643.021Z" stroke="#161616" stroke-width="3" stroke-linecap="round" stroke-linejoin="round"/>
<path d="M784.994 453.05C784.998 453.199 784.919 453.339 784.789 453.412L779.432 456.43C778.565 456.919 777.771 457.527 777.073 458.237L758.992 476.631C758.263 477.372 757.463 478.041 756.605 478.627L756.236 478.879C754.083 480.35 751.602 481.272 749.011 481.565L746.113 481.893C744.964 482.023 743.831 482.277 742.736 482.652L718.963 490.779C718.079 491.081 717.223 491.46 716.404 491.912L702.996 499.317C702.088 499.818 701.23 500.407 700.436 501.074L690.449 509.468C689.582 510.197 688.795 511.015 688.101 511.91L670.139 535.065L670.094 535.111L658.724 546.771C657.881 547.636 656.92 548.377 655.871 548.974L646.136 554.51C646.042 554.563 645.923 554.538 645.859 554.451V554.451L643.409 551.157C642.233 549.575 640.775 548.224 639.108 547.172L635.567 544.937C631.997 542.684 627.681 541.933 623.559 542.848L618.97 543.868L618.664 543.914C612.481 544.849 606.32 542.097 602.891 536.869L600.813 533.701L595.612 524.011C594.234 521.444 592.181 519.302 589.674 517.816L580.268 512.239L567.523 505.951C566.94 505.663 566.691 504.966 566.959 504.375V504.375L567.44 503.314L568.402 501.193L568.918 500.053C569.225 499.376 569.382 498.642 569.379 497.9L569.375 496.632C569.369 494.856 570.638 493.331 572.385 493.015V493.015L576.653 492.245V492.245C580.453 491.072 582.78 487.245 582.072 483.33L581.591 480.672L581.149 478.839L580.681 476.891C579.741 472.979 580.309 468.856 582.272 465.344L582.498 464.94L584.296 462.448C585.534 460.733 585.935 458.552 585.389 456.508V456.508C584.288 452.39 579.809 450.186 575.874 451.827L573.395 452.861C572.488 453.239 571.647 453.757 570.902 454.395L566.051 458.548C564.924 459.513 563.535 460.121 562.061 460.295L561.019 460.417C557.98 460.775 555.13 458.878 554.287 455.936V455.936C553.707 453.91 554.188 451.727 555.567 450.133L558.557 446.677V446.677C559.262 445.864 560.207 445.296 561.256 445.057L569.809 443.106C573.392 442.289 576.585 440.262 578.85 437.368L580.035 435.854V435.854C581.454 434.043 579.963 431.423 577.682 431.717L572.363 432.402C571.841 432.469 571.312 432.45 570.797 432.344L566.656 431.496C562.083 430.56 559.788 425.404 562.152 421.38L562.629 420.569C563.455 419.162 564.916 418.247 566.543 418.117V418.117L579.114 417.116C580.69 416.991 582.239 416.632 583.71 416.053L589.261 413.865C589.993 413.576 590.704 413.234 591.387 412.84L596.608 409.83C598.073 408.985 599.394 407.914 600.523 406.657L603.599 403.229C604.802 401.889 606.222 400.762 607.8 399.895L610.325 398.507C611.875 397.656 613.556 397.067 615.298 396.765L624.045 395.249L635.781 392.225L643.915 390.634L650.655 389.315L665.155 385.612L694.513 377.732L714.36 372.939C720.031 371.57 725.861 374.499 728.147 379.867V379.867C729.587 383.25 732.506 385.781 736.059 386.727L738.344 387.335C741.462 388.166 744.257 389.92 746.36 392.367L751.559 398.415C752.09 399.032 752.573 399.689 753.004 400.381L759.366 410.587C760.259 412.02 761.372 413.301 762.666 414.386L779.26 428.296C782.883 431.332 784.977 435.815 784.982 440.542L784.994 453.05V453.05Z" stroke="#161616" stroke-width="3" stroke-linecap="round" stroke-linejoin="round"/>
<path d="M447.04 353.971L450.452 354.931C452.065 355.386 453.597 356.09 454.991 357.02L455.059 357.065L457.137 358.624C457.683 359.033 458.199 359.48 458.681 359.963V359.963V359.963C459.161 360.442 459.56 360.996 459.863 361.603L460.13 362.136L461.578 366.119L463.027 370.103L464.572 377.294C464.745 378.1 464.855 378.918 464.902 379.741L465.642 392.678L465.845 402.385L465.694 407.022L465.618 409.341L465.58 410.5V410.5C465.555 411.26 465.334 412.001 464.937 412.649L455.406 428.261L448.405 439.307L446.91 441.661L445.609 443.716C445.399 444.048 444.889 443.937 444.836 443.548V443.548L444.678 442.408L444.364 440.129L443.418 433.284C443.179 431.551 442.656 429.869 441.872 428.305L441.039 426.643C438.936 422.446 434.836 419.613 430.166 419.13V419.13C428.181 418.925 426.175 419.155 424.287 419.803L416.887 422.346C416.806 422.374 416.738 422.429 416.694 422.502V422.502L407.698 437.606V437.606C405.964 440.516 402.977 442.454 399.613 442.853L395.777 443.307C391.519 443.811 387.248 442.471 384.042 439.623V439.623C383.009 438.706 381.854 437.935 380.61 437.333L375.077 434.657V434.657C369.867 432.66 366.201 427.931 365.563 422.389L365.516 421.978C365.23 419.488 365.545 416.966 366.437 414.623L370.258 404.581L374.506 396.07V396.07C375.844 393.388 376.329 390.36 375.894 387.395L375.716 386.178L374.289 376.448L370.611 362.056C370.465 361.483 370.844 360.909 371.427 360.818V360.818L372.516 360.649L374.694 360.309L379.051 359.63L380.861 359.384L385.17 358.804C386.849 358.578 388.481 358.086 390.006 357.348L395.706 354.589L400.956 351.882C402.631 351.018 404.446 350.457 406.317 350.224L417.405 348.847C418.933 348.657 420.48 348.689 421.999 348.942L437.111 351.452L447.04 353.971Z" stroke="#161616" stroke-width="3" stroke-linecap="round" stroke-linejoin="round"/>
<path d="M447.04 353.971L437.108 351.455L421.997 348.945C420.478 348.693 418.931 348.661 417.403 348.851L406.314 350.228C404.444 350.46 402.629 351.021 400.954 351.885L395.704 354.592L390.004 357.351C388.479 358.09 386.846 358.581 385.167 358.807L380.859 359.387L379.048 359.633L374.692 360.312L372.514 360.652L371.425 360.822V360.822C370.814 360.917 370.236 360.517 370.109 359.913L364.196 331.783C363.93 330.521 363.514 329.296 362.954 328.135L351.821 305.006C350.986 303.273 349.846 301.704 348.454 300.375L343.731 295.864C343.029 295.194 342.268 294.589 341.457 294.057L339.238 292.601C335.812 290.354 333.379 286.877 332.441 282.889L331.961 280.849C331.256 277.855 331.429 274.722 332.46 271.824L333.528 268.819L334.852 265.097L335.513 263.236L335.645 262.928C336.056 261.966 336.725 261.137 337.578 260.531V260.531L338.98 259.687L347.931 254.3L351.005 252.403C355.694 249.509 361.542 249.231 366.484 251.668L369.009 252.913C369.838 253.322 370.63 253.801 371.377 254.347L372.352 255.06C377.334 258.702 383.996 259.057 389.337 255.967V255.967C391.379 254.785 393.126 253.154 394.446 251.198L398.632 244.992C400.105 242.808 402.093 241.022 404.421 239.792L412.599 235.471C414.06 234.699 415.631 234.158 417.257 233.867L422.686 232.897L426.627 232.192L428.598 231.839L429.536 231.671C430.196 231.553 430.875 231.709 431.417 232.103V232.103L432.265 232.72L433.962 233.954L437.355 236.421L437.837 236.772C441.816 239.665 446.906 240.567 451.638 239.216L453.726 238.62C457.621 237.508 461.793 237.915 465.4 239.759L473.114 243.702C476.428 245.396 479.048 248.192 480.523 251.609L485.439 263.002L486.48 265.412C487.34 267.402 488.594 269.196 490.169 270.687L495.13 275.383L499.311 279.343C500.559 280.524 501.989 281.497 503.546 282.224L506.837 283.759C512.662 286.477 515.748 292.938 514.201 299.176V299.176C513.768 300.924 512.988 302.567 511.907 304.008L505.782 312.176L504.694 314.055L497.286 326.873L496.579 328.322L490.277 341.258C489.932 341.967 489.534 342.65 489.088 343.3L485.097 349.121V349.121C482.947 353.307 482.904 358.265 484.983 362.488L485.197 362.922C485.891 364.33 486.789 365.628 487.864 366.772L493.118 372.364L502.778 382.981C504.594 384.977 505.875 387.399 506.504 390.023L508.012 396.321C509.335 401.849 507.627 407.665 503.523 411.598L499.209 415.733C498.64 416.278 498.031 416.781 497.389 417.236L493.14 420.248C488.347 423.644 482.042 424.028 476.872 421.238V421.238C475.8 420.66 474.8 419.957 473.894 419.143L470.399 416.009L467.969 413.829L466.754 412.74L466.147 412.195V412.195C465.762 411.849 465.549 411.351 465.566 410.834L465.843 402.376L465.639 392.668L464.91 379.903C464.856 378.966 464.72 378.036 464.504 377.123L462.033 366.704C461.221 363.282 459.305 360.223 456.58 358L456.455 357.898C454.64 356.417 452.522 355.353 450.25 354.78L447.04 353.971Z" stroke="#161616" stroke-width="3" stroke-linecap="round" stroke-linejoin="round"/>
<path d="M431.419 232.107C431.021 231.818 431.055 231.214 431.482 230.971L434.596 229.197L438.621 226.905L439.882 226.186C441.097 225.493 442.401 224.97 443.758 224.63V224.63C449.36 223.228 453.702 218.802 454.999 213.175L456.326 207.414C456.526 206.548 456.797 205.699 457.138 204.878L461.041 195.466C461.805 193.622 462.908 191.938 464.292 190.5L468.646 185.975C470.868 183.666 472.345 180.744 472.887 177.586L474.293 169.394C474.723 166.888 476.365 164.757 478.679 163.703V163.703L481.077 162.61L495.626 155.984L512.347 147.749C516.584 145.663 518.737 140.858 517.475 136.307V136.307V136.307C517.452 136.223 517.458 136.134 517.492 136.055L519.987 130.204C520.065 130.021 520.271 129.931 520.458 129.998V129.998L522.761 130.827C524.241 131.359 525.59 132.2 526.721 133.293V133.293C528.283 134.804 530.253 135.823 532.388 136.224L535.989 136.902C537.73 137.229 539.529 137.045 541.168 136.372V136.372C544.937 134.825 549.275 135.949 551.818 139.132L553.183 140.839C554.209 142.122 554.962 143.601 555.398 145.185L556.291 148.436C557.526 152.93 560.963 156.488 565.412 157.877V157.877C567.319 158.472 569.334 158.643 571.315 158.377L572.327 158.241L579.054 157.336L606.139 155.092L612.2 155.265C620.307 155.498 624.227 165.294 618.518 171.055V171.055C618.05 171.526 617.533 171.946 616.976 172.308L604.275 180.54C601.469 182.359 599.597 185.312 599.149 188.626L598.967 189.973C598.56 192.982 599.704 195.992 602.006 197.971V197.971C606.105 201.495 606.176 207.817 602.159 211.432L600.834 212.624C599.72 213.626 598.406 214.379 596.978 214.833L596.752 214.904L595.614 215.266C589.216 217.3 584.767 223.113 584.476 229.821L584.367 232.337L583.836 240.11C583.569 244.006 581.684 247.612 578.637 250.054V250.054V250.054C575.761 251.837 574.503 255.375 575.608 258.574L579.227 269.049C581.055 274.34 585.515 278.291 590.988 279.467L613.318 284.266V284.266C613.478 284.3 613.644 284.287 613.797 284.229L628.192 278.777C629.25 278.376 630.347 278.089 631.465 277.92L637.353 277.028C642.947 276.181 648.5 278.788 651.423 283.632V283.632C653.837 287.633 654.094 292.575 652.108 296.805L648.294 304.927C647.513 306.592 646.374 308.064 644.96 309.24L644.66 309.489C644.396 309.709 644.117 309.909 643.823 310.088V310.088C642.174 311.098 640.185 311.396 638.311 310.914L635.513 310.194L631.777 309.231C629.897 308.747 627.946 308.609 626.017 308.824L619.134 309.589V309.589C617.661 309.754 616.323 310.527 615.444 311.72L615.387 311.798L613.014 315.022L610.897 317.896V317.896C607.878 322.579 602.232 324.845 596.814 323.548L586.921 321.181C585.074 320.739 583.32 319.971 581.742 318.915L563.266 306.543L552.617 301.299C549.285 299.657 545.485 299.227 541.87 300.081L540.021 300.517C534.402 301.845 529.934 306.097 528.329 311.643L527.405 314.839C526.989 316.277 526.373 317.65 525.575 318.918L522.029 324.55C520.212 327.437 517.518 329.668 514.343 330.916L504.276 334.873L497.015 338.6L493.385 340.463L492.96 340.681C492.041 341.153 491.223 341.797 490.55 342.579V342.579V342.579C490.27 342.86 489.811 342.536 489.982 342.178L496.575 328.325L497.282 326.876L504.689 314.058L505.777 312.179L511.903 304.011C512.984 302.571 513.764 300.928 514.197 299.18V299.18C515.743 292.941 512.657 286.481 506.833 283.763L503.542 282.227C501.984 281.5 500.554 280.527 499.307 279.346L495.125 275.387L490.164 270.69C488.59 269.2 487.335 267.405 486.476 265.415L485.435 263.005L480.518 251.612C479.044 248.195 476.424 245.399 473.11 243.705L465.396 239.762C461.789 237.919 457.617 237.512 453.722 238.623L451.635 239.219C446.903 240.57 441.812 239.667 437.832 236.772L437.354 236.424L433.962 233.957L432.267 232.724L431.419 232.107V232.107Z" stroke="#161616" stroke-width="3" stroke-linecap="round" stroke-linejoin="round"/>
<path d="M454.861 216.954C454.581 218.666 452.869 219.749 451.202 219.269V219.269C450.678 219.117 450.206 218.821 449.843 218.413L447.496 215.779C446.429 214.581 445.559 213.22 444.92 211.748L443.796 209.162L441.046 202.83L437.838 196.086C436.791 193.885 435.254 191.953 433.347 190.436L426.488 184.984L411.286 170.559C408.706 168.111 405.383 166.592 401.843 166.243L390.857 165.16C386.72 164.752 382.587 165.971 379.332 168.557L377.192 170.258C376.436 170.859 375.579 171.318 374.661 171.616V171.616C370.53 172.954 366.082 170.78 364.6 166.699L362.607 161.211C362.376 160.575 362.191 159.923 362.053 159.261L358.861 143.871L355.291 128.624C354.893 126.926 354.776 125.174 354.943 123.439L355.963 112.882C356.276 109.635 357.78 106.618 360.184 104.414V104.414L360.224 104.382C362.723 102.398 364.571 99.7132 365.532 96.6713L366.313 94.1999C366.548 93.4564 366.728 92.6966 366.852 91.9268L367.451 88.2149C367.87 85.6153 368.924 83.1593 370.52 81.0649L370.546 81.0312L375.956 73.9269L379.703 69.0038C380.725 67.6621 382.098 66.6295 383.67 66.0206V66.0206L388.07 64.3164L401.033 59.2974C401.972 58.9342 402.873 58.4833 403.727 57.9507L420.856 47.2622L436.418 40.3302C438.646 39.3381 441.07 38.8682 443.507 38.9563L451.25 39.2362L454.106 39.3397L464.284 39.0255C466.953 38.9431 469.559 38.1941 471.864 36.8466L472.876 36.2548L476.588 34.085L484.371 28.1028L491.76 22.6379L497.945 18.6463C498.85 18.0622 499.694 17.3883 500.464 16.6347L507.88 9.37343L511.048 6.34201C513.865 3.64709 518.52 4.71894 519.875 8.37421V8.37421L521.135 13.8487C521.569 15.7366 522.343 17.5299 523.418 19.1412L526.879 24.3266C527.307 24.9677 527.78 25.5769 528.296 26.1497L531.451 29.6547C533.342 31.7558 534.643 34.3205 535.221 37.0877L536.789 44.5912L538.536 52.5292C539.062 54.9187 540.129 57.1557 541.655 59.0683L542.199 59.75C543.079 60.8536 544.102 61.8358 545.24 62.671L546.033 63.2528C547.934 64.6475 549.503 66.4449 550.628 68.5165L554.273 75.2295C555.122 76.7926 556.226 78.2033 557.539 79.4033L562.775 84.1893C563.995 85.3046 565.422 86.1707 566.974 86.7387V86.7387C572.21 88.6543 575.58 93.7642 575.281 99.3312L575.013 104.307L574.045 121.497L574.865 136.993C574.923 138.081 575.092 139.16 575.369 140.214L577.363 147.803L577.871 150.653C578.52 154.297 576.002 157.748 572.334 158.241V158.241L571.323 158.377C569.342 158.643 567.327 158.473 565.419 157.877V157.877C560.97 156.488 557.533 152.93 556.298 148.436L555.405 145.185C554.97 143.601 554.217 142.123 553.191 140.839L551.826 139.132C549.282 135.949 544.945 134.826 541.176 136.373V136.373C539.536 137.045 537.737 137.229 535.996 136.902L532.395 136.224C530.26 135.823 528.29 134.804 526.729 133.294V133.294C525.598 132.2 524.248 131.359 522.768 130.827L520.465 129.998V129.998C520.279 129.931 520.072 130.021 519.994 130.204L517.5 136.055C517.466 136.135 517.46 136.224 517.483 136.307V136.307V136.307C518.745 140.858 516.591 145.663 512.355 147.749L495.633 155.984L481.085 162.61L478.687 163.703V163.703C476.373 164.757 474.73 166.888 474.3 169.394L472.894 177.586C472.353 180.744 470.875 183.666 468.654 185.975L464.299 190.5C462.915 191.938 461.813 193.623 461.048 195.466L457.143 204.883C456.805 205.7 456.562 206.553 456.419 207.425L454.861 216.954Z" stroke="#161616" stroke-width="3" stroke-linecap="round" stroke-linejoin="round"/>
<path d="M487.471 345.675C488.974 343.48 491 341.694 493.368 340.479L504.283 334.876L514.35 330.919C517.525 329.671 520.219 327.44 522.036 324.553L525.582 318.921C526.38 317.653 526.996 316.28 527.412 314.842L528.336 311.647C529.94 306.1 534.409 301.848 540.028 300.521L541.877 300.084C545.492 299.23 549.292 299.66 552.624 301.302L563.273 306.546L581.749 318.918C583.327 319.975 585.08 320.742 586.928 321.184L596.821 323.551C602.239 324.848 607.885 322.582 610.904 317.9V317.9L613.021 315.025L615.394 311.801L615.451 311.723C616.33 310.53 617.668 309.757 619.141 309.592V309.592L626.024 308.827C627.953 308.612 629.904 308.751 631.783 309.235L635.52 310.197V310.197C639.141 311.129 642.143 313.656 643.678 317.066L644.603 319.122L649.123 329.165C650.405 332.013 652.492 334.424 655.128 336.1L665.094 342.437V342.437C668.257 344.448 670.594 347.527 671.681 351.114L673.937 358.563C675.135 362.518 674.756 366.782 672.881 370.464L668.44 379.18C666.352 383.279 662.6 386.281 658.142 387.419L650.655 389.331L643.915 390.65L635.781 392.241L624.044 395.265L615.298 396.781C613.555 397.083 611.875 397.672 610.325 398.524L607.8 399.911C606.222 400.778 604.802 401.906 603.599 403.245L600.523 406.673C599.394 407.93 598.073 409.001 596.608 409.846L591.387 412.857C590.704 413.25 589.993 413.593 589.26 413.881L583.71 416.069C582.239 416.648 580.69 417.007 579.114 417.132L566.543 418.133V418.133C564.916 418.263 563.455 419.178 562.629 420.585L562.152 421.396C559.788 425.42 562.083 430.576 566.656 431.512L570.797 432.36C571.312 432.466 571.841 432.485 572.363 432.418L577.682 431.733C579.963 431.439 581.454 434.059 580.035 435.87V435.87L578.85 437.384C576.585 440.278 573.392 442.305 569.809 443.122L561.256 445.073C560.207 445.312 559.262 445.88 558.557 446.693V446.693L555.567 450.149C554.188 451.743 553.707 453.926 554.287 455.952V455.952C555.13 458.894 557.98 460.791 561.019 460.433L562.061 460.311C563.535 460.137 564.924 459.529 566.051 458.564L570.902 454.412C571.647 453.773 572.488 453.255 573.395 452.878L575.874 451.843C579.809 450.202 584.288 452.406 585.389 456.524V456.524C585.935 458.568 585.534 460.749 584.296 462.464L582.498 464.956L582.272 465.36C580.309 468.872 579.741 472.995 580.681 476.907L581.149 478.855L581.591 480.688L582.072 483.347C582.78 487.261 580.453 491.088 576.653 492.261V492.261L572.385 493.031V493.031C570.638 493.347 569.369 494.872 569.375 496.648L569.379 497.916C569.382 498.658 569.225 499.393 568.918 500.069L568.402 501.209L566.478 505.452L560.584 514.713V514.713C559.184 516.911 558.825 519.615 559.602 522.102L561.64 528.621L562.869 532.557C563.072 533.209 563.161 533.891 563.131 534.573V534.573C562.999 537.601 560.595 540.037 557.569 540.209L557.03 540.239L554.062 540.642C551.093 541.045 548.32 542.346 546.112 544.37L545.009 545.381C543.648 546.628 541.957 547.457 540.137 547.769V547.769C536.057 548.467 531.988 546.471 530.041 542.818L529.873 542.503C528.953 540.777 527.551 539.355 525.839 538.41L517.023 533.547C516.051 533.011 515.138 532.375 514.298 531.65L507.805 526.047C505.665 524.199 504.535 521.441 504.763 518.623V518.623C504.887 517.103 504.615 515.576 503.976 514.191L503.938 514.109C502.928 511.924 501.102 510.221 498.852 509.365L496.417 508.439L492.16 506.847C490.997 506.412 489.889 505.843 488.858 505.152L481.581 500.274V500.274C481.138 499.977 480.559 499.976 480.115 500.272L477.065 502.305C474.443 504.053 473.365 507.373 474.461 510.327L475.381 512.808L477.829 519.414C478.226 520.484 478.259 521.655 477.924 522.745V522.745L476.049 528.85V528.85C474.533 533.787 469.741 536.965 464.603 536.441L461.313 536.105C459.974 535.969 458.661 535.651 457.408 535.161L456.998 535.001L455.6 534.454L449.892 532.223L447.037 531.107L445.61 530.55L444.897 530.271V530.271C444.532 530.128 444.395 529.683 444.617 529.361L445.882 527.523L447.58 525.054L449.64 522.061C450.527 520.771 451.22 519.359 451.697 517.868L453.499 512.239L453.563 512.039C454.305 509.722 453.996 507.196 452.718 505.125V505.125L451.327 502.87C450.495 501.521 449.409 500.347 448.129 499.413V499.413C445.168 497.253 441.393 496.536 437.846 497.46L435.41 498.095L430.417 499.316C428.404 499.808 426.315 499.904 424.265 499.6L418.102 498.684L410.273 497.119C409.686 497.002 409.529 496.235 410.023 495.896V495.896L411.347 494.988L413.994 493.172L416.852 491.211C418.463 490.106 419.859 488.714 420.969 487.106L425.706 480.241C426.227 479.486 426.427 478.555 426.262 477.652V477.652L425.184 471.747L424.633 468.727C424.354 467.197 423.649 465.777 422.601 464.629L421.508 463.432C419.287 461 419.248 457.288 421.417 454.809V454.809L424.017 451.838C426.463 449.043 429.806 447.186 433.473 446.586L441.454 445.28C443.703 444.912 445.688 443.599 446.907 441.674V441.674L448.402 439.32L455.403 428.274L465.114 412.369C465.335 412.007 465.83 411.934 466.146 412.217V412.217L466.754 412.762L467.969 413.852L470.398 416.031L473.893 419.166C474.8 419.979 475.8 420.683 476.872 421.261V421.261C482.041 424.051 488.346 423.667 493.139 420.27L497.388 417.259C498.031 416.803 498.639 416.301 499.208 415.756L503.522 411.621C507.626 407.687 509.335 401.872 508.011 396.344L506.503 390.045C505.875 387.422 504.593 384.999 502.777 383.003L493.118 372.387L487.864 366.794C486.789 365.65 485.89 364.353 485.197 362.945L484.983 362.51C482.904 358.287 482.946 353.33 485.097 349.143V349.143L487.471 345.675Z" stroke="#161616" stroke-width="3" stroke-linecap="round" stroke-linejoin="round"/>
</svg>
