<?xml version="1.0" encoding="iso-8859-1"?>
<!-- Generator: Adobe Illustrator 19.0.0, SVG Export Plug-In . SVG Version: 6.00 Build 0)  -->
<svg version="1.1" id="Capa_1" xmlns="http://www.w3.org/2000/svg" xmlns:xlink="http://www.w3.org/1999/xlink" x="0px" y="0px"
	 viewBox="0 0 512 512" style="enable-background:new 0 0 512 512;" xml:space="preserve">
<g>
	<g>
		<polygon points="452,30 452,0 422,0 422,30 392,30 392,120 482,120 482,30 		"/>
	</g>
</g>
<g>
	<g>
		<polygon points="90,30 90,0 60,0 60,30 30,30 30,120 120,120 120,30 		"/>
	</g>
</g>
<g>
	<g>
		<path d="M407,262v250h105V262H407z M474.5,353h-30v-60h30V353z"/>
	</g>
</g>
<g>
	<g>
		<polygon points="0,150 0,232 108.942,232 149.112,150 		"/>
	</g>
</g>
<g>
	<g>
		<path d="M0,262v250h105V262H0z M67.5,353h-30v-60h30V353z"/>
	</g>
</g>
<g>
	<g>
		<polygon points="362.888,150 403.058,232 512,232 512,150 		"/>
	</g>
</g>
<g>
	<g>
		<rect x="211" y="337" width="90" height="100"/>
	</g>
</g>
<g>
	<g>
		<path d="M256,0L135,247v265h46V322c0-41.355,33.645-75,75-75s75,33.645,75,75v190h46V247L256,0z"/>
	</g>
</g>
<g>
	<g>
		<path d="M256,277c-19.555,0-36.228,12.541-42.42,30h84.84C292.228,289.541,275.555,277,256,277z"/>
	</g>
</g>
<g>
	<g>
		<rect x="211" y="467" width="90" height="45"/>
	</g>
</g>
<g>
</g>
<g>
</g>
<g>
</g>
<g>
</g>
<g>
</g>
<g>
</g>
<g>
</g>
<g>
</g>
<g>
</g>
<g>
</g>
<g>
</g>
<g>
</g>
<g>
</g>
<g>
</g>
<g>
</g>
</svg>
