<?xml version="1.0" encoding="iso-8859-1"?>
<!-- Generator: Adobe Illustrator 16.0.0, SVG Export Plug-In . SVG Version: 6.00 Build 0)  -->
<!DOCTYPE svg PUBLIC "-//W3C//DTD SVG 1.1//EN" "http://www.w3.org/Graphics/SVG/1.1/DTD/svg11.dtd">
<svg version="1.1" id="Capa_1" xmlns="http://www.w3.org/2000/svg" xmlns:xlink="http://www.w3.org/1999/xlink" x="0px" y="0px"
	 width="70.099px" height="70.1px" viewBox="0 0 70.099 70.1" style="enable-background:new 0 0 70.099 70.1;" xml:space="preserve"
	>
<g>
	<path d="M55.062,35.719V20.591h1.103v-1.436h-1.103V15.3h1.103v-1.437h-1.103v-3.435H15.425v3.435h-1.1v1.43h1.1v3.862h-1.1v1.436
		h1.1v15.125H0v9.055h1.139v14.9h68.214V44.777h0.746v-9.059H55.062z M57.896,37.491v6.067h-5.068v-6.067H57.896z M16.603,14.15
		h36.892v0.926H16.603V14.15z M16.603,19.323h36.892v0.933H16.603V19.323z M12.198,37.491h5.072v6.067h-5.072V37.491z M17.855,58.12
		h-5.296V47.306h5.296V58.12z M27.88,58.12h-5.306V47.306h5.306V58.12z M37.888,58.12h-5.292V47.306h5.296L37.888,58.12
		L37.888,58.12z M31.763,43.559v-6.067h5.075v6.067H31.763z M38.999,34.391h-7.506V22.687h7.51v11.704H38.999z M47.91,58.12h-5.304
		V47.306h5.304V58.12z M57.934,58.12h-5.302V47.306h5.308V58.12H57.934z"/>
</g>
<g>
</g>
<g>
</g>
<g>
</g>
<g>
</g>
<g>
</g>
<g>
</g>
<g>
</g>
<g>
</g>
<g>
</g>
<g>
</g>
<g>
</g>
<g>
</g>
<g>
</g>
<g>
</g>
<g>
</g>
</svg>
