<?xml version="1.0" encoding="iso-8859-1"?>
<!-- Generator: Adobe Illustrator 16.0.0, SVG Export Plug-In . SVG Version: 6.00 Build 0)  -->
<!DOCTYPE svg PUBLIC "-//W3C//DTD SVG 1.1//EN" "http://www.w3.org/Graphics/SVG/1.1/DTD/svg11.dtd">
<svg version="1.1" id="Capa_1" xmlns="http://www.w3.org/2000/svg" xmlns:xlink="http://www.w3.org/1999/xlink" x="0px" y="0px"
	 width="457px" height="457px" viewBox="0 0 457 457" style="enable-background:new 0 0 457 457;" xml:space="preserve">
<g>
	<g>
		<path d="M0,253.254v180.99h36.5v-81.488h39v81.488h31v-81.488h39v81.488h41.851c-0.06-0.906-0.101-1.817-0.101-2.738v-75.5
			c0-22.781,18.468-41.25,41.25-41.25s41.25,18.469,41.25,41.25v75.5c0,0.921-0.041,1.832-0.102,2.738H311.5v-81.488h39v81.488h31
			v-81.488h39v81.488H457v-180.99H0L0,253.254z"/>
		<polygon points="417,209.756 389.5,209.756 389.5,178.416 368.5,178.416 368.5,209.756 88.5,209.756 88.5,178.416 67.5,178.416 
			67.5,209.756 40,209.756 40,241.756 417,241.756 		"/>
		<path d="M168.25,148.756h20.5v46h29.5v-46h20.5v46h29.5v-46h20.5v46H314v-59c0-44.041-33.304-80.292-76.098-84.975V22.756h-18.804
			v28.025C176.304,55.464,143,91.715,143,135.756v59h25.25V148.756z"/>
	</g>
</g>
<g>
</g>
<g>
</g>
<g>
</g>
<g>
</g>
<g>
</g>
<g>
</g>
<g>
</g>
<g>
</g>
<g>
</g>
<g>
</g>
<g>
</g>
<g>
</g>
<g>
</g>
<g>
</g>
<g>
</g>
</svg>
