<svg id="Capa_1" enable-background="new 0 0 511.904 511.904" height="512" viewBox="0 0 511.904 511.904" width="512" xmlns="http://www.w3.org/2000/svg"><g><path d="m265.783.064h-19.663c-87.893 0-159.145 71.252-159.145 159.145v175.818h337.953v-175.818c0-87.894-71.251-159.145-159.145-159.145zm51.646 286.621h-122.955c-8.284 0-15-6.716-15-15s6.716-15 15-15h122.955c8.284 0 15 6.716 15 15s-6.715 15-15 15zm0-60h-122.955c-8.284 0-15-6.716-15-15s6.716-15 15-15h122.955c8.284 0 15 6.716 15 15s-6.715 15-15 15zm0-60h-122.955c-8.284 0-15-6.716-15-15s6.716-15 15-15h122.955c8.284 0 15 6.716 15 15s-6.715 15-15 15z"/><path d="m480.184 418.555v-38.529c0-8.284-6.716-15-15-15h-418.464c-8.284 0-15 6.716-15 15v38.529z"/><path d="m511.904 511.84h-511.904v-48.285c0-8.284 6.716-15 15-15h481.904c8.284 0 15 6.716 15 15z"/></g></svg>