<svg width="1602" height="1618" viewBox="0 0 1602 1618" fill="none" xmlns="http://www.w3.org/2000/svg">
<path d="M246.275 222.888C246.094 222.941 245.922 222.785 245.955 222.601L251.165 194.669C252.18 189.226 255.936 184.695 261.097 182.689L292.441 170.506C295.192 169.437 298.185 169.15 301.089 169.676L345.656 177.749L398.237 181.882C399.183 181.956 400.133 181.946 401.077 181.852L450.505 176.925C452.898 176.687 455.314 176.991 457.574 177.815L513.582 198.239C514.594 198.608 515.641 198.874 516.706 199.033L580.376 208.516L610.897 213.228L661.445 221.035C665.231 221.62 669.102 220.827 672.353 218.799L734.251 180.201C740.092 176.559 747.506 181.486 746.41 188.282C746.348 188.668 746.258 189.049 746.14 189.421L742.475 201.021C741.514 204.063 739.666 206.748 737.167 208.732L733.106 211.956L730.017 214.789C727.105 217.459 725.284 221.112 724.904 225.044L722.161 253.455C721.993 255.191 722.111 256.942 722.508 258.64L730.408 292.379L737.102 324.647C737.258 325.398 737.468 326.137 737.73 326.859L742.247 339.299C745.189 347.4 754.019 351.715 762.218 349.058L762.687 348.906C764.509 348.316 766.211 347.403 767.71 346.211L777.402 338.508C780.656 335.922 784.79 334.703 788.927 335.111L823.687 338.538C827.227 338.887 830.55 340.405 833.131 342.854L868.249 376.176L885.238 389.683C887.146 391.2 888.683 393.132 889.73 395.333L897.922 412.552L903.527 425.457L906.762 432.904C907.439 434.463 908.36 435.904 909.491 437.173L916.985 445.586C920.761 449.825 918.056 456.555 912.397 457.002L901.974 457.824C900.206 457.964 898.491 458.491 896.951 459.369L892.987 461.628L878.971 469.612C877.388 470.513 875.662 471.138 873.869 471.459L846.9 476.282C845.274 476.573 843.702 477.114 842.242 477.886L819.603 489.848C817.275 491.079 815.286 492.865 813.813 495.048L800.926 514.154C799.57 516.165 797.774 517.841 795.675 519.056L783.659 526.009C778.17 529.185 771.323 528.82 766.203 525.077L754.767 516.718C754.021 516.172 753.229 515.692 752.4 515.284L737.713 508.042C732.771 505.606 726.923 505.884 722.234 508.777L708.144 517.473L689.9 528.454L684.183 531.894L667.774 539.075L651.366 546.256L619.993 557.853C618.98 558.228 617.932 558.499 616.864 558.662L585.73 563.422C584.368 563.63 583.039 564.013 581.775 564.562L550.013 578.354L496.922 596.664C495.97 596.993 494.99 597.23 493.993 597.374L440.147 605.153C439.328 605.271 438.519 605.453 437.729 605.696L413.082 613.28C412.157 613.565 411.208 613.765 410.247 613.878L393.229 615.882C388.065 616.49 382.927 614.55 379.453 610.681L366.332 596.068C365.782 595.455 365.186 594.886 364.548 594.366L359.407 590.166C351.955 584.079 340.854 585.899 335.736 594.048L330.552 602.302C330.126 602.98 329.752 603.689 329.432 604.423L316.642 633.794C315.727 635.894 314.372 637.773 312.669 639.304L286.785 662.573L256.587 684.442L241.81 695.976C241.766 696.008 241.707 696.013 241.658 695.988L227.372 688.67C225.892 687.912 224.539 686.928 223.362 685.754L191.91 654.357C190.662 653.111 189.628 651.668 188.851 650.085L184.025 640.256L150.186 570.53C149.528 569.175 148.682 567.919 147.674 566.801L134.374 552.054C133.021 550.553 131.395 549.322 129.583 548.427L113.605 540.527C111.897 539.682 110.051 539.15 108.156 538.954L32.3417 531.132C30.6332 530.956 28.9642 530.506 27.3988 529.799L13.4361 523.494C8.23734 521.146 4.68165 516.208 4.10343 510.533L3.60979 505.689L3.57601 505.358C2.96671 499.386 5.75059 493.577 10.7862 490.31L46.7089 467.008C50.0578 464.836 54.0976 463.994 58.0354 464.647L177.882 484.535C179.265 484.765 180.672 484.812 182.067 484.674L229.467 480.015C232.686 479.699 235.733 478.414 238.207 476.332L242.306 472.881C244.001 471.454 245.381 469.69 246.359 467.702L249.258 461.807C249.878 460.547 250.329 459.209 250.6 457.831L259.114 414.494C259.284 413.627 259.526 412.776 259.837 411.948L260.857 409.234C261.786 406.765 263.31 404.564 265.295 402.826L278.268 391.468C279.119 390.723 279.889 389.889 280.564 388.982L293.08 372.162C293.959 370.982 294.67 369.686 295.194 368.311L303.472 346.604C303.76 345.849 303.99 345.072 304.161 344.282L318.037 280.047L318.438 275.372C318.517 274.457 318.517 273.537 318.437 272.621L318.144 269.232C318.072 268.411 317.938 267.597 317.741 266.797L317.376 265.308C316.857 263.196 315.913 261.212 314.601 259.477L297.306 236.598C296.82 235.954 296.285 235.348 295.707 234.785L287.034 226.336C285.94 225.271 284.699 224.367 283.348 223.653L278.005 220.827C275.404 219.453 272.475 218.821 269.539 219.002L257.698 219.734C257.204 219.764 256.716 219.849 256.241 219.988L246.275 222.888Z" stroke="white" stroke-width="6" stroke-linecap="round" stroke-linejoin="round"/>
<path d="M241.817 696.056C241.781 696.038 241.777 695.987 241.81 695.963L256.587 684.429L286.785 662.56L312.669 639.291C314.372 637.76 315.727 635.881 316.641 633.781L329.432 604.41C329.752 603.676 330.126 602.967 330.552 602.289L335.736 594.035C340.854 585.886 351.954 584.066 359.407 590.153L364.548 594.352C365.185 594.873 365.782 595.442 366.332 596.054L379.453 610.668C382.927 614.537 388.065 616.477 393.229 615.869L410.247 613.865C411.208 613.751 412.157 613.551 413.082 613.267L437.729 605.683C438.519 605.44 439.328 605.258 440.146 605.14L493.993 597.361C494.989 597.217 495.97 596.98 496.922 596.651L550.013 578.341L581.775 564.548C583.039 564 584.368 563.617 585.73 563.408L616.864 558.649C617.931 558.485 618.98 558.214 619.993 557.84L651.366 546.243L667.774 539.062L675.978 535.471L680.081 533.676L680.495 533.495C681.892 532.883 683.345 534.237 682.834 535.674L681.485 539.467L678.788 547.053L674.971 557.786C673.941 560.685 673.768 563.818 674.472 566.812L678.089 582.18C679.028 586.169 681.461 589.645 684.887 591.893L696.214 599.324C697.025 599.856 697.786 600.461 698.488 601.131L711.396 613.458C712.787 614.787 713.927 616.356 714.762 618.089L739.639 669.768C740.198 670.93 740.615 672.155 740.88 673.416L753.81 734.922L761.863 766.433L764.771 786.265L765.767 793.06C766.241 796.296 765.712 799.599 764.252 802.525L762.304 806.427L753.646 823.774L744.48 847.865C743.568 850.259 743.246 852.838 743.538 855.383L745.083 868.815C745.764 874.738 749.683 879.792 755.251 881.926L763.469 885.077L776.57 891.413C777.896 892.054 779.126 892.876 780.228 893.854L786.644 899.552C790.061 902.586 794.612 904.015 799.15 903.478L816.525 901.42C821.46 900.836 825.844 897.991 828.388 893.722L829.958 891.088L848.294 860.301C848.384 860.153 848.523 860.04 848.687 859.984L866.275 853.941C868.473 853.186 870.808 852.918 873.12 853.157L882.306 854.107C887.742 854.669 892.515 857.967 894.964 862.853L900.843 874.582C901.627 876.146 902.149 877.828 902.388 879.561L904.691 896.229L905.333 900.875L905.654 903.199C905.832 904.491 904.947 905.69 903.66 905.901L876.611 910.328C872.945 910.928 869.602 912.785 867.155 915.58L857.926 926.125C853.505 931.177 853.586 938.744 858.113 943.701L860.51 946.326C862.536 948.544 863.897 951.289 864.436 954.244L865.604 960.649L867.802 972.684C868.139 974.524 867.731 976.423 866.669 977.962L855.27 994.479C854.16 996.088 852.765 997.479 851.153 998.585L832.004 1011.72L801.279 1033.25L776.109 1052.81C772.782 1055.39 768.57 1056.56 764.387 1056.06L739.201 1053.04C736.805 1052.75 734.504 1051.93 732.472 1050.63L721.047 1043.31L715.718 1039.89C714.439 1039.07 713.051 1038.44 711.594 1038.01L708.235 1037.02C708.086 1036.98 707.941 1036.92 707.805 1036.84C707.217 1036.52 706.815 1035.94 706.719 1035.28L706.554 1034.15C706.541 1034.05 706.534 1033.96 706.534 1033.86C706.534 1033.06 707.025 1032.33 707.773 1032.03L712.923 1029.98C714.717 1029.26 716.27 1028.05 717.399 1026.48L718.264 1025.27C720.039 1022.81 721.036 1019.87 721.127 1016.83L721.148 1016.13C721.228 1013.47 720.641 1010.82 719.441 1008.45L717.684 1004.96C716.521 1002.66 715.934 1000.1 715.972 997.523L716.057 991.696C716.121 987.289 718 983.104 721.25 980.129L724.151 977.473C724.886 976.799 725.683 976.196 726.531 975.671L733.024 971.65C735.376 970.194 737.31 968.152 738.638 965.724L741.075 961.267C742.727 958.247 743.361 954.774 742.881 951.364L741.843 943.977C741.476 941.361 740.467 938.878 738.906 936.747L733.458 929.311C732.32 927.758 730.911 926.423 729.3 925.371L721.262 920.121C719.64 919.062 717.839 918.306 715.948 917.891L708.696 916.297C707.07 915.94 705.399 915.838 703.742 915.996L659.168 920.247C657.754 920.382 656.327 920.328 654.927 920.086L645.305 918.425C642.903 918.01 640.628 917.052 638.653 915.624L631.995 910.811C630.658 909.844 629.478 908.675 628.497 907.347L612.805 886.091C612.014 885.019 611.093 884.051 610.062 883.208L604.502 878.661C601.95 876.574 598.816 875.326 595.529 875.088L578.388 873.846C575.467 873.635 572.543 874.229 569.936 875.565L522.612 899.811C521.336 900.465 519.978 900.944 518.574 901.236L497.678 905.583C495.022 906.135 492.27 906.003 489.679 905.2L479.914 902.17C477.545 901.436 475.38 900.161 473.589 898.446L466.755 891.903C465.512 890.713 464.469 889.329 463.666 887.806L447.333 856.819C446.842 855.887 446.26 855.006 445.595 854.188L437.27 843.943C436.006 842.388 434.461 841.084 432.716 840.099L423.571 834.939C422.493 834.331 421.348 833.849 420.16 833.505L395.461 826.35C393.437 825.764 391.548 824.783 389.904 823.465L370.688 808.059C368.861 806.593 367.377 804.745 366.343 802.643L339.085 747.284C338.283 745.654 337.209 744.173 335.909 742.904L319.372 726.757C317.531 724.959 315.283 723.632 312.82 722.888L268.788 709.589C267.867 709.311 266.972 708.95 266.116 708.511L241.817 696.056Z" stroke="white" stroke-width="6" stroke-linecap="round" stroke-linejoin="round"/>
<path d="M801.782 1274.35C800.463 1274.21 799.333 1273.35 798.856 1272.11C798.709 1271.73 798.495 1271.37 798.225 1271.06L793.396 1265.51L788.244 1260.79L756.291 1238.34C755.419 1237.73 754.611 1237.03 753.877 1236.26L737.72 1219.21C736.67 1218.11 735.784 1216.85 735.089 1215.5L729.376 1204.33C728.836 1203.28 728.416 1202.17 728.121 1201.02L724.459 1186.76L720.215 1176C719.223 1173.48 717.609 1171.26 715.524 1169.54L707.94 1163.27C706.826 1162.35 705.592 1161.58 704.273 1161L651.965 1137.63C650.796 1137.11 649.695 1136.45 648.684 1135.66L628.482 1120C626.001 1118.07 624.142 1115.46 623.134 1112.49L615.85 1090.99C614.635 1087.4 614.731 1083.5 616.123 1079.98L622.249 1064.47C623.515 1061.26 625.781 1058.55 628.712 1056.74L646.388 1045.8C648.064 1044.77 649.916 1044.05 651.853 1043.68L699.716 1034.7C703.741 1033.94 707.903 1034.76 711.344 1036.98L732.475 1050.61C734.517 1051.93 736.832 1052.76 739.245 1053.05L764.405 1056.07C768.588 1056.57 772.8 1055.4 776.127 1052.82L801.298 1033.25L830.022 1013.13C831.299 1012.24 832.888 1011.9 834.418 1012.21L836.814 1012.69L841.605 1013.64L851.188 1015.56L866.972 1017.9C869.022 1018.21 871.112 1018.11 873.125 1017.62L886.465 1014.36L895.515 1012C900.16 1010.79 905.103 1011.73 908.981 1014.56L913.803 1018.08C915.479 1019.3 916.902 1020.84 917.991 1022.6L921.743 1028.69L921.979 1029.07C924.435 1033.05 925.028 1037.9 923.602 1042.35L923.335 1043.19L918.916 1056.99C918.439 1058.49 917.746 1059.9 916.859 1061.19L905.254 1078.05C904.651 1078.93 903.963 1079.74 903.199 1080.48L889.773 1093.48C887.289 1095.88 885.65 1099.03 885.102 1102.44L881.774 1123.19C881.24 1126.52 881.773 1129.94 883.297 1132.95L892.064 1150.27L904.639 1169.24C906.135 1171.5 907.034 1174.1 907.251 1176.8L909.371 1203.21C909.508 1204.91 909.919 1206.59 910.589 1208.17L919.604 1229.43C920.938 1232.58 923.245 1235.22 926.186 1236.96L948.356 1250.08L961.182 1259.34L967.595 1263.97L970.802 1266.28C972.294 1267.36 972.16 1269.62 970.551 1270.52L942.441 1286.13L913.869 1304.72C912.628 1305.53 911.506 1306.5 910.534 1307.62L886.064 1335.69L872.145 1355.89C867.343 1362.86 857.943 1364.88 850.698 1360.51L838.607 1353.21C834.378 1350.65 831.566 1346.29 830.988 1341.38L824.86 1289.32C823.985 1281.9 818.08 1276.06 810.64 1275.28L801.782 1274.35Z" stroke="white" stroke-width="6" stroke-linecap="round" stroke-linejoin="round"/>
<path d="M801.385 1278.63C800.585 1276.58 802.246 1274.4 804.441 1274.63L815.577 1275.8C820.127 1276.27 823.738 1279.84 824.273 1284.38L830.983 1341.38C831.56 1346.28 834.372 1350.65 838.601 1353.2L850.692 1360.5C857.937 1364.88 867.337 1362.85 872.139 1355.88L886.058 1335.68L910.528 1307.61C911.5 1306.49 912.623 1305.52 913.863 1304.71L942.436 1286.12L969.316 1271.69L971.53 1270.21C972.779 1269.38 974.458 1269.65 975.38 1270.84L998.722 1300.8C1000.08 1302.54 1001.06 1304.54 1001.61 1306.68L1007.79 1330.96L1007.84 1331.18C1007.87 1331.28 1007.82 1331.37 1007.73 1331.41C1007.72 1331.42 1007.7 1331.43 1007.69 1331.44L996.871 1340.49C996.206 1341.04 995.587 1341.65 995.021 1342.31L986.275 1352.45C985.613 1353.21 985.025 1354.04 984.52 1354.92L965.265 1388.4L962.086 1392.81C961.258 1393.96 960.28 1394.99 959.179 1395.88L955.768 1398.64C955.013 1399.25 954.204 1399.79 953.351 1400.26L943.127 1405.82C942.212 1406.32 941.348 1406.91 940.547 1407.57L937.624 1410C936.357 1411.06 935.26 1412.3 934.372 1413.69L926.949 1425.31C926.484 1426.03 926.079 1426.8 925.737 1427.59L914.442 1453.81C913.599 1455.76 912.374 1457.53 910.838 1459.01L902.068 1467.44C900.936 1468.53 899.651 1469.44 898.252 1470.16L856.814 1491.31C855.729 1491.86 854.712 1492.54 853.781 1493.32L842.284 1503.01C841.411 1503.74 840.62 1504.57 839.923 1505.47L831.599 1516.26C830.923 1517.14 830.34 1518.08 829.859 1519.08L808.634 1563.04L800.436 1576.16C799.942 1576.95 799.379 1577.7 798.754 1578.39L789.695 1588.45C789.168 1589.03 788.598 1589.58 787.99 1590.08L776.824 1599.29L765.46 1606.43C764.66 1606.94 763.817 1607.37 762.941 1607.72L749.824 1613.02C748.211 1613.67 746.503 1614.06 744.767 1614.16L744.113 1614.2C737.6 1614.58 731.507 1610.97 728.715 1605.07L706.846 1558.88C706.466 1558.07 706.153 1557.24 705.912 1556.39L703.438 1547.64C703.128 1546.55 702.936 1545.43 702.865 1544.29L702.294 1535.19C702.237 1534.29 702.257 1533.38 702.354 1532.48L703.538 1521.45L706.007 1510.5C706.185 1509.7 706.424 1508.93 706.721 1508.17L706.825 1507.91C707.207 1506.93 707.493 1505.92 707.678 1504.89L707.966 1503.29L717.627 1473.28C718.005 1472.11 718.246 1470.89 718.345 1469.66L720.303 1445.34C720.403 1444.1 720.358 1442.86 720.171 1441.63L716.104 1415.07L707.702 1386.9C706.777 1383.8 704.933 1381.05 702.414 1379.02L688.45 1367.76C687.777 1367.21 687.061 1366.73 686.309 1366.3L663.367 1353.26C662.13 1352.56 660.992 1351.7 659.984 1350.69L646.116 1336.89C643.197 1333.98 641.511 1330.06 641.41 1325.94L640.983 1308.7C640.87 1304.13 642.713 1299.74 646.048 1296.62L653.262 1289.87C656.748 1286.61 661.507 1285.07 666.241 1285.68L683.333 1287.89C685.145 1288.13 686.902 1288.67 688.53 1289.5L728.899 1310C731.845 1311.5 735.183 1312.05 738.453 1311.57L739.182 1311.46C741.7 1311.1 744.094 1310.13 746.165 1308.66L775.233 1287.92C777.777 1286.11 780.797 1285.08 783.92 1284.96L794.085 1284.58C795.032 1284.54 795.961 1284.31 796.811 1283.89L799.938 1282.35C801.311 1281.67 801.939 1280.06 801.385 1278.63Z" stroke="white" stroke-width="6" stroke-linecap="round" stroke-linejoin="round"/>
<path d="M1122.61 1309.78L1078.28 1334.84C1076.74 1335.7 1075.07 1336.31 1073.34 1336.64L1070.09 1337.24C1067.72 1337.68 1065.29 1337.58 1062.98 1336.95L1056.02 1335.07C1055.22 1334.85 1054.44 1334.57 1053.68 1334.24L1036.4 1326.52C1034.21 1325.54 1031.83 1325.06 1029.44 1325.13L1022.92 1325.31C1021.54 1325.35 1020.19 1325.66 1018.94 1326.24L1008.24 1331.18C1008.06 1331.26 1007.84 1331.16 1007.79 1330.96L1001.59 1306.63C1001.06 1304.52 1000.1 1302.55 998.773 1300.83L975.427 1270.45C974.482 1269.22 973.363 1268.13 972.106 1267.22L948.349 1250.07L926.18 1236.95C923.238 1235.21 920.931 1232.57 919.597 1229.43L910.582 1208.16C909.913 1206.58 909.502 1204.91 909.364 1203.2L907.244 1176.8C907.027 1174.1 906.128 1171.5 904.632 1169.24L892.058 1150.26L883.29 1132.94C881.766 1129.93 881.233 1126.52 881.768 1123.18L885.095 1102.43C885.643 1099.02 887.282 1095.87 889.767 1093.47L895.14 1088.27L902.097 1081.54C903.464 1080.21 905.478 1079.81 907.25 1080.5L910.159 1081.64L915.976 1083.91L927.612 1088.46L930.46 1089.57L933.111 1090.61C934.461 1091.14 935.876 1091.48 937.317 1091.63L950.912 1093.01C958.506 1093.79 965.589 1089.09 967.83 1081.79L969.291 1077.04L973.113 1064.59C973.796 1062.37 973.728 1059.99 972.92 1057.81L967.929 1044.34L966.054 1039.28C963.821 1033.26 966.018 1026.5 971.362 1022.93L977.578 1018.79C978.484 1018.19 979.664 1018.19 980.568 1018.79L997.01 1029.82C998.041 1030.51 999.149 1031.08 1000.31 1031.51L1010.81 1035.44L1016.82 1037.72C1020.73 1039.21 1023.91 1042.17 1025.66 1045.97L1026.44 1047.65C1027.59 1050.15 1028.08 1052.91 1027.86 1055.65L1027.73 1057.23C1027.32 1062.32 1029.36 1067.31 1033.23 1070.64L1048.56 1083.88C1049.4 1084.6 1050.32 1085.24 1051.29 1085.77L1071.97 1097.18C1074.68 1098.68 1076.9 1100.93 1078.36 1103.67L1080.55 1107.79C1083.8 1113.87 1090.57 1117.2 1097.37 1116.03L1100.96 1115.42C1103.99 1114.9 1106.8 1113.52 1109.07 1111.44L1115.31 1105.72C1117.72 1103.52 1120.74 1102.1 1123.97 1101.66L1134.35 1100.25L1135.45 1100.19C1141.62 1099.84 1146.52 1094.88 1146.79 1088.7C1146.85 1087.31 1146.66 1085.92 1146.25 1084.59L1143.75 1076.57L1139.31 1062.39C1137.91 1057.89 1138.56 1052.99 1141.09 1049.02L1141.59 1048.22L1147.6 1038.78L1150.6 1034.07L1152.56 1031C1153.15 1030.06 1154.36 1029.72 1155.36 1030.21L1157.12 1031.08L1160.63 1032.81L1167.66 1036.28L1181.71 1043.21L1204.86 1056.94C1207.37 1058.42 1209.42 1060.57 1210.8 1063.13L1223.59 1086.96L1233.67 1102.32C1237.1 1107.55 1243.26 1110.3 1249.44 1109.37L1260.6 1107.68L1276.63 1104.12C1280.75 1103.2 1285.07 1103.95 1288.64 1106.21L1304.26 1116.07C1305.93 1117.12 1307.39 1118.47 1308.56 1120.05L1315.4 1129.25C1315.53 1129.42 1315.48 1129.65 1315.3 1129.75L1307.12 1134.39C1306.76 1134.6 1306.39 1134.78 1306 1134.93L1230.27 1164.48C1229.39 1164.82 1228.54 1165.24 1227.73 1165.74L1193.72 1186.58C1192.35 1187.42 1191.12 1188.46 1190.06 1189.66L1186.56 1193.64C1184.93 1195.5 1183.75 1197.71 1183.12 1200.1L1182.04 1204.15C1181.63 1205.7 1180.99 1207.17 1180.15 1208.53L1154.2 1250.04C1153.56 1251.06 1153.04 1252.16 1152.65 1253.3L1140.54 1288.41C1140.26 1289.23 1139.9 1290.04 1139.49 1290.81L1136.86 1295.66C1136.35 1296.61 1135.74 1297.51 1135.04 1298.34L1129.81 1304.55C1128.58 1306.01 1127.1 1307.24 1125.44 1308.18L1122.61 1309.78Z" stroke="white" stroke-width="6" stroke-linecap="round" stroke-linejoin="round"/>
<path d="M1598.99 922.573C1599 922.877 1598.83 923.161 1598.57 923.31L1586.96 929.853C1585.65 930.59 1584.45 931.506 1583.4 932.576L1544.85 971.793C1544.12 972.535 1543.32 973.204 1542.46 973.79L1536.97 977.543C1534.81 979.014 1532.33 979.936 1529.74 980.229L1517.94 981.564C1516.79 981.694 1515.66 981.949 1514.57 982.323L1463.02 999.945C1462.14 1000.25 1461.28 1000.63 1460.46 1001.08L1430.44 1017.66C1429.53 1018.16 1428.67 1018.75 1427.88 1019.42L1404.93 1038.7C1404.06 1039.43 1403.27 1040.25 1402.58 1041.15L1364.89 1089.74L1364.79 1089.83L1340.61 1114.63C1339.56 1115.71 1338.37 1116.63 1337.06 1117.37L1315.96 1129.37C1315.77 1129.48 1315.53 1129.43 1315.4 1129.25L1308.56 1120.05C1307.38 1118.47 1305.92 1117.12 1304.26 1116.07L1288.63 1106.21C1285.06 1103.96 1280.75 1103.2 1276.63 1104.12L1260.59 1107.68L1249.43 1109.37C1243.25 1110.3 1237.09 1107.55 1233.66 1102.32L1223.58 1086.96L1210.8 1063.13C1209.42 1060.57 1207.36 1058.42 1204.86 1056.94L1181.71 1043.21L1155.73 1030.4C1154.54 1029.81 1154.03 1028.39 1154.58 1027.18L1155.56 1025.02L1157.52 1020.7L1158.57 1018.38C1159.2 1017 1159.52 1015.5 1159.51 1013.99L1159.5 1011.4C1159.49 1007.78 1162.08 1004.68 1165.64 1004.03L1174.34 1002.46C1182.07 1000.07 1186.83 992.282 1185.39 984.32L1184.4 978.873L1183.5 975.136L1181.03 964.849C1180.09 960.937 1180.66 956.814 1182.62 953.302L1186.25 946.808L1189.92 941.728C1192.44 938.232 1193.26 933.787 1192.15 929.621C1189.9 921.227 1180.77 916.736 1172.75 920.08L1167.24 922.379C1165.7 923.023 1164.26 923.905 1162.99 924.992L1152.73 933.779C1150.43 935.746 1147.6 936.985 1144.6 937.339L1142.47 937.589C1136.28 938.318 1130.47 934.451 1128.75 928.456C1127.57 924.325 1128.55 919.876 1131.36 916.626L1137.46 909.582C1138.89 907.925 1140.82 906.769 1142.96 906.281L1166.14 900.993C1169.72 900.175 1172.92 898.149 1175.18 895.254L1181.23 887.522C1184.12 883.831 1181.09 878.492 1176.44 879.091L1165.6 880.487C1164.53 880.624 1163.45 880.584 1162.4 880.369L1153.96 878.641C1144.64 876.733 1139.96 866.224 1144.78 858.021L1145.75 856.368C1147.44 853.501 1150.42 851.635 1153.73 851.371L1181.82 849.135C1183.4 849.009 1184.95 848.651 1186.42 848.071L1201.18 842.255C1201.91 841.966 1202.62 841.623 1203.31 841.23L1217.31 833.156C1218.77 832.312 1220.09 831.241 1221.22 829.983L1231.15 818.925C1232.35 817.585 1233.77 816.457 1235.35 815.59L1245.4 810.067C1246.95 809.215 1248.63 808.626 1250.37 808.324L1270.93 804.76L1294.86 798.597L1311.44 795.355L1325.17 792.665L1354.73 785.119L1414.57 769.057L1461.88 757.631C1469.48 755.796 1477.29 759.722 1480.36 766.916L1484.71 777.151C1486.64 781.684 1490.56 785.076 1495.32 786.344L1508.87 789.954C1511.99 790.784 1514.79 792.538 1516.89 794.985L1531.67 812.176C1532.2 812.794 1532.68 813.451 1533.11 814.142L1548.15 838.268C1549.04 839.7 1550.16 840.982 1551.45 842.066L1593.23 877.091C1596.86 880.127 1598.95 884.61 1598.95 889.337L1598.99 922.573Z" stroke="white" stroke-width="6" stroke-linecap="round" stroke-linejoin="round"/>
<path d="M910.157 720.626L919.639 723.296C921.252 723.75 922.784 724.454 924.179 725.384L926.503 726.934L931.499 730.68C932.104 731.134 932.677 731.631 933.212 732.167L933.885 732.839C934.862 733.817 935.676 734.946 936.295 736.182L936.837 737.268L939.79 745.387L942.742 753.507L946.161 769.421C946.334 770.227 946.445 771.045 946.492 771.868L948.073 799.52L948.487 819.306L948.178 828.758L948.023 833.483L947.946 835.846C947.895 837.395 947.444 838.904 946.637 840.227L927.21 872.047L912.94 894.562L909.893 899.36L907.241 903.548C906.812 904.224 905.774 903.998 905.665 903.206L905.344 900.883L904.702 896.236L902.4 879.568C902.16 877.835 901.638 876.153 900.854 874.589L894.975 862.86C892.527 857.974 887.753 854.676 882.317 854.114L873.13 853.164C870.819 852.925 868.484 853.193 866.286 853.948L848.698 859.99C848.534 860.047 848.395 860.159 848.306 860.308L829.969 891.095L828.399 893.73C825.855 897.999 821.472 900.843 816.537 901.427L799.161 903.485C794.623 904.022 790.072 902.593 786.655 899.559L780.239 893.861C779.138 892.883 777.907 892.061 776.581 891.42L763.48 885.084L755.262 881.933C749.694 879.799 745.776 874.745 745.094 868.822L743.55 855.39C743.257 852.845 743.58 850.266 744.491 847.872L753.657 823.781L762.315 806.434L764.263 802.532C765.723 799.606 766.252 796.303 765.778 793.067L764.782 786.272L761.875 766.44L754.378 737.105C754.08 735.938 754.851 734.768 756.041 734.583L758.261 734.237L762.7 733.545L771.579 732.16L775.27 731.66L786.683 730.123C788.362 729.896 789.995 729.405 791.52 728.667L805.527 721.885L818.857 715.012C820.533 714.148 822.347 713.587 824.218 713.355L852.146 709.886C853.674 709.696 855.222 709.728 856.741 709.98L889.919 715.492L910.157 720.626Z" stroke="white" stroke-width="6" stroke-linecap="round" stroke-linejoin="round"/>
<path d="M910.159 720.626L889.914 715.499L856.736 709.987C855.217 709.734 853.67 709.703 852.142 709.892L824.213 713.361C822.343 713.593 820.528 714.154 818.852 715.018L805.523 721.892L791.515 728.673C789.99 729.412 788.358 729.903 786.678 730.129L775.265 731.666L771.574 732.167L762.696 733.551L758.256 734.243L756.037 734.589C754.792 734.783 753.614 733.969 753.355 732.737L740.887 673.43C740.622 672.168 740.205 670.943 739.646 669.781L714.768 618.102C713.934 616.369 712.793 614.8 711.402 613.471L698.494 601.144C697.793 600.474 697.032 599.869 696.22 599.337L684.893 591.906C681.467 589.658 679.034 586.182 678.095 582.193L674.479 566.826C673.774 563.831 673.947 560.698 674.978 557.8L678.794 547.067L681.492 539.48L682.84 535.687L683.109 535.06C683.946 533.099 685.309 531.408 687.048 530.174L689.906 528.454L708.151 517.473L722.241 508.777C726.93 505.884 732.777 505.606 737.719 508.043L752.407 515.284C753.236 515.693 754.028 516.172 754.774 516.718L766.209 525.077C771.329 528.82 778.176 529.185 783.665 526.009L795.681 519.056C797.781 517.841 799.576 516.165 800.932 514.154L813.82 495.048C815.292 492.865 817.281 491.079 819.609 489.848L842.248 477.886C843.709 477.114 845.28 476.573 846.906 476.283L860.519 473.848L868.552 472.411L872.568 471.693L874.481 471.351C875.825 471.11 877.209 471.428 878.314 472.231L880.043 473.489L883.501 476.003L890.418 481.032L897.946 486.506C901.925 489.399 907.015 490.301 911.746 488.95L930.079 483.718C933.974 482.606 938.146 483.013 941.752 484.856L968.626 498.593C971.94 500.287 974.56 503.083 976.035 506.5L988.425 535.21L991.899 543.253C992.758 545.243 994.013 547.038 995.587 548.528L1008.18 560.446L1018.65 570.368C1019.9 571.55 1021.33 572.522 1022.89 573.249L1040.54 581.486C1047.47 584.721 1051.15 592.41 1049.31 599.835L1046.49 611.188C1045.98 613.269 1045.05 615.224 1043.76 616.939L1029.89 635.438L1027.67 639.268L1012.57 665.394L1011.13 668.347L997.747 695.821C997.401 696.53 997.004 697.212 996.558 697.863L987.728 710.74L984.437 717.146C982.124 721.649 982.078 726.982 984.314 731.524L989.007 741.055C989.707 742.477 990.615 743.788 991.701 744.943L1004.08 758.116L1026.64 782.914C1028.45 784.909 1029.74 787.332 1030.36 789.956L1036.65 816.213C1037.98 821.741 1036.27 827.557 1032.16 831.49L1015.6 847.362C1015.03 847.907 1014.43 848.41 1013.78 848.865L996.275 861.273C991.31 864.791 984.78 865.189 979.425 862.299L969.345 856.86C968.235 856.261 967.2 855.533 966.26 854.69L957.769 847.074L952.816 842.631L950.34 840.41L949.102 839.3C948.317 838.596 947.884 837.581 947.918 836.527L948.482 819.286L948.068 799.5L946.497 772.02C946.443 771.083 946.308 770.153 946.091 769.241L939.418 741.101C938.606 737.679 936.69 734.62 933.965 732.397L926.487 726.296C924.672 724.815 922.554 723.75 920.282 723.178L910.159 720.626Z" stroke="white" stroke-width="6" stroke-linecap="round" stroke-linejoin="round"/>
<path d="M878.318 472.238C877.508 471.649 877.576 470.419 878.447 469.923L884.794 466.308L892.998 461.635L897.394 459.13C898.66 458.408 900.018 457.863 901.43 457.51L912.569 454.721C918.402 453.26 922.924 448.652 924.274 442.792L929.397 420.557C929.597 419.69 929.868 418.842 930.209 418.021L939.896 394.659C940.66 392.816 941.763 391.131 943.147 389.693L957.737 374.532C959.958 372.224 961.435 369.301 961.977 366.144L965.706 344.414C966.582 339.306 969.93 334.963 974.646 332.815L979.535 330.587L1009.19 317.082L1046.26 298.822C1053.16 295.425 1056.67 287.602 1054.61 280.192L1053.72 276.976C1053.67 276.805 1053.69 276.624 1053.76 276.461L1058.84 264.536C1059 264.164 1059.42 263.98 1059.8 264.117L1065.84 266.288C1067.97 267.055 1069.91 268.267 1071.54 269.842L1074 272.216C1076.25 274.393 1079.09 275.861 1082.16 276.44L1092.24 278.335C1095.28 278.906 1098.42 278.586 1101.27 277.412L1103.88 276.341C1110.46 273.643 1118.02 275.603 1122.46 281.153L1127.62 287.604C1128.97 289.302 1129.97 291.259 1130.55 293.355L1134.56 307.968C1136 313.221 1140.02 317.378 1145.22 319.002L1153.95 321.726C1156.18 322.422 1158.53 322.622 1160.85 322.311L1165.52 321.683L1179.23 319.837L1234.44 315.263L1253.46 315.808C1267.45 316.209 1274.22 333.12 1264.36 343.064L1259.45 348.021C1258.64 348.835 1257.75 349.561 1256.79 350.184L1227.8 368.975C1223.88 371.513 1221.27 375.634 1220.65 380.258L1219.66 387.582C1218.93 392.952 1220.97 398.325 1225.08 401.858L1227.97 404.345C1235.29 410.634 1235.42 421.918 1228.25 428.372L1222.75 433.317C1221.06 434.84 1219.06 435.983 1216.89 436.672L1215.31 437.176L1201.93 441.429C1195.53 443.462 1191.08 449.275 1190.79 455.983L1190.06 472.708L1188.61 494.006C1188.3 498.47 1186.14 502.601 1182.65 505.4L1178.38 508.82C1172.52 512.454 1169.96 519.665 1172.21 526.185L1182.64 556.385C1184.47 561.676 1188.93 565.627 1194.41 566.803L1249.07 578.552C1249.4 578.621 1249.74 578.594 1250.05 578.476L1281.04 566.737C1282.1 566.336 1283.2 566.049 1284.31 565.88L1306.33 562.548C1312.72 561.579 1319.08 564.56 1322.42 570.101L1330.2 582.986C1332.96 587.562 1333.25 593.215 1330.98 598.053L1319.46 622.59C1318.46 624.714 1317.01 626.593 1315.2 628.093L1312.96 629.961C1312.42 630.409 1311.85 630.817 1311.25 631.183C1307.89 633.241 1303.83 633.849 1300.01 632.866L1294.31 631.398L1283.74 628.676C1281.86 628.192 1279.91 628.054 1277.98 628.269L1260.93 630.166C1257.92 630.502 1255.2 632.076 1253.41 634.509L1253.29 634.667L1248.45 641.238L1244.14 647.098L1240.01 653.498C1236.33 659.207 1229.45 661.97 1222.84 660.389L1192.37 653.098C1190.52 652.656 1188.77 651.889 1187.19 650.832L1147.05 623.957L1120 610.631C1116.67 608.99 1112.87 608.56 1109.25 609.414L1090.23 613.906C1084.61 615.233 1080.15 619.485 1078.54 625.032L1073.31 643.117C1072.89 644.555 1072.28 645.928 1071.48 647.196L1060.1 665.273C1058.28 668.161 1055.59 670.391 1052.41 671.639L1026.82 681.7L1012.02 689.296L1004.62 693.094L1003.7 693.566C1001.86 694.509 1000.23 695.798 998.88 697.363L998.842 697.407C998.271 697.979 997.337 697.319 997.684 696.59L1011.12 668.354L1012.56 665.401L1027.66 639.274L1029.88 635.445L1043.75 616.945C1045.04 615.231 1045.97 613.275 1046.48 611.195L1049.3 599.841C1051.14 592.417 1047.47 584.728 1040.53 581.493L1022.88 573.256C1021.32 572.529 1019.89 571.556 1018.65 570.375L1008.17 560.453L995.579 548.535C994.005 547.044 992.75 545.25 991.891 543.26L988.417 535.216L976.026 506.507C974.552 503.09 971.932 500.293 968.618 498.6L941.744 484.863C938.137 483.02 933.966 482.613 930.071 483.724L911.74 488.956C907.008 490.307 901.917 489.405 897.937 486.509L890.416 481.039L883.503 476.01L880.046 473.495L878.318 472.238Z" stroke="white" stroke-width="6" stroke-linecap="round" stroke-linejoin="round"/>
<path d="M926.099 441.354C925.529 444.843 922.039 447.051 918.641 446.071C917.572 445.763 916.611 445.158 915.87 444.327L909.509 437.187C908.379 435.918 907.458 434.477 906.781 432.918L903.546 425.47L897.941 412.565L889.749 395.347C888.702 393.146 887.165 391.213 885.258 389.696L868.268 376.19L833.15 342.867C830.569 340.419 827.246 338.9 823.706 338.551L788.946 335.125C784.809 334.717 780.675 335.935 777.421 338.522L767.729 346.224C766.23 347.416 764.528 348.329 762.706 348.92L762.237 349.072C754.038 351.728 745.208 347.413 742.266 339.312L737.749 326.872C737.487 326.151 737.277 325.412 737.121 324.66L730.427 292.393L722.527 258.654C722.13 256.956 722.012 255.204 722.18 253.468L724.923 225.058C725.303 221.125 727.124 217.472 730.036 214.802L733.125 211.97L737.186 208.745C739.685 206.762 741.533 204.076 742.494 201.034L745.983 189.992C746.218 189.248 746.398 188.489 746.522 187.719L748.599 174.841C749.018 172.242 750.072 169.786 751.668 167.691L754.244 164.311L765.271 149.83L773.356 139.21C775.146 136.858 777.553 135.049 780.309 133.981L780.995 133.715L789.963 130.242L817.849 119.445C818.788 119.082 819.689 118.631 820.543 118.098L856.788 95.4812L892.022 79.7867C894.25 78.7947 896.674 78.3247 899.111 78.4128L918.737 79.1225L924.56 79.3333L949.527 78.5626C952.196 78.4802 954.802 77.7312 957.107 76.3837L962.818 73.0457L970.384 68.623L986.247 56.4299L1001.31 45.2912L1015.33 36.2435C1016.23 35.6594 1017.08 34.9854 1017.85 34.2318L1034.16 18.2551L1040.62 12.0763C1046.36 6.58344 1055.85 8.76813 1058.61 16.2184L1061.86 30.3413C1062.3 32.2292 1063.07 34.0224 1064.15 35.6338L1073.55 49.7328C1073.98 50.3739 1074.46 50.9831 1074.97 51.5559L1085.2 62.9237C1087.1 65.0248 1088.4 67.5895 1088.98 70.3568L1093.09 90.0372L1097.48 109.988C1098 112.377 1099.07 114.614 1100.6 116.527L1105.49 122.661C1106.37 123.764 1107.39 124.746 1108.53 125.582L1114.93 130.273C1116.83 131.667 1118.39 133.465 1119.52 135.536L1130.06 154.937C1130.9 156.5 1132.01 157.91 1133.32 159.111L1147.49 172.06C1149.03 173.466 1150.83 174.559 1152.78 175.275L1161.46 178.448C1168.06 180.864 1172.31 187.31 1171.93 194.333L1171 211.752L1169.02 246.79L1170.79 280.072C1170.84 281.16 1171.01 282.24 1171.29 283.294L1175.79 300.407L1176.82 306.217C1178.14 313.644 1173.01 320.676 1165.54 321.683L1160.86 322.311C1158.55 322.622 1156.19 322.423 1153.96 321.727L1145.23 319.002C1140.03 317.378 1136.02 313.221 1134.57 307.968L1130.56 293.355C1129.98 291.259 1128.99 289.302 1127.63 287.604L1122.47 281.153C1118.04 275.603 1110.47 273.643 1103.9 276.341L1101.29 277.413C1098.43 278.586 1095.29 278.907 1092.26 278.335L1082.18 276.44C1079.1 275.861 1076.26 274.393 1074.01 272.216L1071.56 269.843C1069.93 268.267 1067.98 267.056 1065.85 266.288L1059.82 264.117C1059.43 263.98 1059.01 264.164 1058.86 264.536L1053.77 276.461C1053.7 276.624 1053.69 276.806 1053.74 276.976L1054.63 280.193C1056.68 287.602 1053.18 295.425 1046.28 298.822L1009.2 317.082L979.549 330.587L974.661 332.815C969.944 334.963 966.596 339.306 965.72 344.414L961.992 366.144C961.45 369.301 959.972 372.224 957.751 374.532L943.161 389.694C941.777 391.132 940.675 392.816 939.911 394.659L930.423 417.54C929.95 418.68 929.611 419.87 929.412 421.087L926.099 441.354Z" stroke="white" stroke-width="6" stroke-linecap="round" stroke-linejoin="round"/>
<path d="M994.943 700.244C996.446 698.048 998.473 696.262 1000.84 695.048L1026.83 681.707L1052.43 671.646C1055.6 670.398 1058.3 668.167 1060.11 665.28L1071.49 647.202C1072.29 645.935 1072.91 644.562 1073.32 643.123L1078.55 625.038C1080.16 619.492 1084.63 615.24 1090.25 613.912L1109.26 609.42C1112.88 608.566 1116.68 608.997 1120.01 610.638L1147.07 623.963L1187.2 650.838C1188.78 651.895 1190.54 652.662 1192.38 653.104L1222.85 660.396C1229.46 661.976 1236.34 659.214 1240.02 653.504L1244.15 647.104L1248.47 641.245L1253.3 634.674L1253.42 634.516C1255.21 632.083 1257.94 630.508 1260.94 630.172L1278 628.275C1279.93 628.061 1281.88 628.199 1283.76 628.683L1294.32 631.405L1298.56 632.494C1303.26 633.705 1307.16 636.99 1309.16 641.421L1312.84 649.595L1324.09 674.599C1325.37 677.447 1327.46 679.858 1330.1 681.534L1354.6 697.116L1359.59 700.286C1362.82 702.34 1365.21 705.485 1366.32 709.15L1374.57 736.384C1375.76 740.339 1375.38 744.604 1373.51 748.286L1358.01 778.703C1355.92 782.802 1352.17 785.804 1347.72 786.942L1325.17 792.698L1311.44 795.387L1294.86 798.63L1270.93 804.793L1250.37 808.357C1248.63 808.659 1246.95 809.248 1245.4 810.099L1235.35 815.623C1233.77 816.49 1232.35 817.618 1231.15 818.958L1221.22 830.016C1220.09 831.274 1218.77 832.345 1217.31 833.189L1203.31 841.262C1202.62 841.656 1201.91 841.999 1201.18 842.287L1186.42 848.104C1184.95 848.684 1183.4 849.042 1181.82 849.168L1153.73 851.404C1150.42 851.668 1147.44 853.533 1145.75 856.401L1144.78 858.054C1139.96 866.256 1144.64 876.766 1153.96 878.674L1162.4 880.402C1163.45 880.617 1164.53 880.657 1165.6 880.52L1176.44 879.124C1181.09 878.525 1184.12 883.864 1181.23 887.555L1175.18 895.287C1172.92 898.182 1169.72 900.208 1166.14 901.025L1142.96 906.314C1140.82 906.801 1138.89 907.958 1137.46 909.615L1131.36 916.659C1128.55 919.909 1127.57 924.358 1128.75 928.488C1130.47 934.483 1136.28 938.35 1142.47 937.622L1144.6 937.371C1147.6 937.018 1150.43 935.779 1152.73 933.812L1162.99 925.025C1164.26 923.938 1165.7 923.056 1167.24 922.412L1172.75 920.113C1180.77 916.769 1189.9 921.26 1192.15 929.654C1193.26 933.819 1192.44 938.265 1189.92 941.761L1186.25 946.841L1182.62 953.335C1180.66 956.847 1180.09 960.969 1181.03 964.881L1183.5 975.169L1184.4 978.906L1185.39 984.352C1186.83 992.315 1182.07 1000.11 1174.34 1002.49L1165.64 1004.06C1162.08 1004.71 1159.49 1007.82 1159.51 1011.44L1159.51 1014.02C1159.52 1015.53 1159.2 1017.03 1158.57 1018.41L1157.52 1020.73L1153.6 1029.38L1141.59 1048.26L1141.08 1049.05C1138.55 1053.03 1137.9 1057.92 1139.31 1062.42L1143.74 1076.6L1146.24 1084.63C1146.66 1085.96 1146.84 1087.35 1146.78 1088.74C1146.51 1094.91 1141.61 1099.87 1135.44 1100.22L1134.34 1100.28L1123.97 1101.69C1120.73 1102.13 1117.71 1103.55 1115.31 1105.75L1109.06 1111.48C1106.8 1113.55 1103.98 1114.94 1100.95 1115.45L1097.37 1116.07C1090.57 1117.23 1083.79 1113.91 1080.55 1107.82L1078.35 1103.7C1076.89 1100.96 1074.67 1098.71 1071.96 1097.21L1051.28 1085.81C1050.31 1085.27 1049.4 1084.63 1048.56 1083.91L1033.22 1070.67C1029.36 1067.34 1027.31 1062.36 1027.73 1057.27L1027.86 1055.69C1028.08 1052.94 1027.59 1050.18 1026.43 1047.68L1025.66 1046C1023.9 1042.2 1020.73 1039.24 1016.82 1037.76L1010.8 1035.47L1000.31 1031.54C999.143 1031.11 998.035 1030.54 997.004 1029.85L980.561 1018.83C979.658 1018.22 978.477 1018.22 977.572 1018.82L971.356 1022.97C966.012 1026.53 963.815 1033.3 966.048 1039.32L967.923 1044.37L972.914 1057.84C973.722 1060.02 973.79 1062.4 973.107 1064.63L969.285 1077.07L967.824 1081.83C965.583 1089.12 958.5 1093.82 950.906 1093.05L937.31 1091.66C935.869 1091.51 934.455 1091.17 933.105 1090.64L930.454 1089.61L927.605 1088.49L915.97 1083.95L910.152 1081.67L907.244 1080.53L905.789 1079.97C905.046 1079.68 904.768 1078.77 905.22 1078.11L907.797 1074.37L911.259 1069.33L916.846 1061.21C917.733 1059.92 918.426 1058.51 918.903 1057.02L923.322 1043.21L923.59 1042.38C925.015 1037.93 924.422 1033.07 921.966 1029.1L921.73 1028.71L917.978 1022.63C916.889 1020.86 915.466 1019.33 913.79 1018.1L908.968 1014.58C905.09 1011.75 900.147 1010.82 895.502 1012.03L886.452 1014.38L873.112 1017.65C871.099 1018.14 869.009 1018.24 866.959 1017.93L851.175 1015.58L835.218 1012.4C834.021 1012.16 833.701 1010.59 834.708 1009.9L837.406 1008.05L842.803 1004.35L851.158 998.618C852.77 997.512 854.165 996.121 855.275 994.512L866.674 977.995C867.737 976.455 868.144 974.557 867.807 972.717L865.61 960.682L864.441 954.277C863.902 951.322 862.541 948.577 860.515 946.359L858.118 943.734C853.591 938.777 853.511 931.21 857.932 926.158L867.161 915.613C869.607 912.818 872.95 910.961 876.616 910.361L898.891 906.715C903.4 905.977 907.378 903.347 909.823 899.488L909.888 899.386L912.934 894.588L927.204 872.073L946.996 839.655C947.447 838.916 948.457 838.768 949.101 839.346L950.339 840.456L952.815 842.677L957.768 847.12L966.259 854.736C967.198 855.579 968.234 856.307 969.344 856.906L979.423 862.345C984.778 865.235 991.309 864.837 996.273 861.319L1013.78 848.911C1014.42 848.456 1015.03 847.953 1015.6 847.408L1032.16 831.536C1036.27 827.603 1037.97 821.787 1036.65 816.259L1030.36 790.002C1029.73 787.378 1028.45 784.955 1026.64 782.96L1004.08 758.162L991.699 744.989C990.614 743.834 989.706 742.523 989.005 741.101L984.313 731.57C982.077 727.028 982.122 721.695 984.436 717.192L987.726 710.786L994.943 700.244Z" stroke="white" stroke-width="6" stroke-linecap="round" stroke-linejoin="round"/>
</svg>
